<svg width="48" height="48" viewBox="0 0 48 48" fill="none" xmlns="http://www.w3.org/2000/svg">
<rect width="48" height="48" rx="24" fill="#030303"/>
<path d="M24.0003 39.7573L24.195 39.7304L24.3878 39.6499L24.5766 39.5159L24.7594 39.3291L24.9345 39.0902L25.0998 38.8003L25.2535 38.4603L25.394 38.0718L25.6081 37.2551L25.7647 36.2966L25.8561 35.2088L25.8755 34.0056L25.8282 32.8517L25.7171 31.6304L25.5407 30.3539L25.2983 29.0351L24.9903 27.6868L24.668 26.4934L24.2417 25.1259L23.8205 23.9359L23.3573 22.7614L22.781 21.4488L22.1605 20.1796L21.5027 18.9653L20.8152 17.817L20.1063 16.7446L19.3849 15.7571L18.6603 14.8627L17.8533 13.9762L17.0687 13.2241L16.3204 12.6125L15.6227 12.1454L15.262 11.949L14.9233 11.7979L14.609 11.6919L14.3211 11.6306L14.0616 11.6136L13.8325 11.64L13.6357 11.709L13.4727 11.8195L13.3452 11.9703L13.2546 12.1599L13.2021 12.3867L13.1889 12.6492L13.2158 12.9453L13.2837 13.2732L13.3932 13.6307L13.5446 14.0157L13.9235 14.7706L14.4387 15.5931L15.088 16.4688L15.8671 17.3826L16.6635 18.2148L17.552 19.0549L18.5256 19.8925L19.5764 20.7177L20.6957 21.5209L21.7234 22.1988L22.9437 22.9374L24.0431 23.5465L25.1636 24.116L26.4597 24.7132L27.7601 25.2484L29.0522 25.7174L30.3229 26.1173L31.5596 26.4461L32.7495 26.7029L33.8803 26.8879L35.0674 27.0121L36.1492 27.0504L37.111 27.0081L37.9398 26.8913L38.3385 26.7972L38.6907 26.6839L38.9951 26.5532L39.2502 26.4066L39.4549 26.2459L39.6081 26.0731L39.7092 25.8898L39.7576 25.6982L39.7529 25.5002L39.695 25.2977L39.5841 25.0928L39.4203 24.8876L39.2043 24.6839L38.9367 24.4839L38.6185 24.2895L38.2508 24.1025L37.4686 23.7907L36.54 23.5194L35.4761 23.2979L34.2901 23.1345L33.145 23.0438L31.926 23.0087L30.645 23.0323L29.3144 23.1167L27.9473 23.2633L26.7314 23.4425L25.3314 23.7049L24.1074 23.9834L22.8937 24.3057L21.5305 24.7244L20.205 25.1924L18.9295 25.7043L17.7156 26.2536L16.5741 26.8333L15.5151 27.4357L14.5477 28.0522L13.5785 28.7518L12.7447 29.4451L12.0539 30.1187L11.5117 30.759L11.2761 31.0954L11.0877 31.4151L10.9468 31.7158L10.8531 31.9955L10.8064 32.252L10.8063 32.4833L10.852 32.6875L10.9427 32.8628L11.0774 33.0074L11.2547 33.1198L11.4733 33.1986L11.7317 33.2423L12.0281 33.25L12.3607 33.2204L12.7274 33.153L13.1263 33.0468L13.9179 32.757L14.7923 32.339L15.7351 31.7935L16.7308 31.123L17.6479 30.4255L18.5836 29.6372L19.527 28.7636L20.4672 27.8113L21.3938 26.7883L22.2969 25.7033L23.1671 24.5658L23.8945 23.5357L24.5846 22.481L25.3213 21.2552L25.9966 20.0193L26.6049 18.7857L27.1418 17.5668L27.6042 16.3753L27.9897 15.2236L28.2972 14.124L28.5501 12.9638L28.7061 11.9007L28.7685 10.9495L28.7645 10.4745L28.7341 10.0405L28.6786 9.64951L28.5993 9.3033L28.4976 9.00356L28.375 8.75178L28.2332 8.54924L28.0739 8.39705L27.8989 8.29611L27.71 8.24712L27.5093 8.25057L27.2986 8.30672L27.0801 8.41565L26.8557 8.57721L26.6274 8.79103L26.3975 9.05653L26.1677 9.37293L25.9855 9.66202L25.586 10.426L25.2102 11.3401L24.8684 12.3938L24.5705 13.5751L24.3493 14.7208L24.1748 15.9455L24.0512 17.2376L23.9822 18.5847L23.9702 19.9739L24.0169 21.3921L24.1228 22.8257L24.2637 24.0819L24.4486 25.3304L24.7118 26.7359L25.0272 28.1063L25.3907 29.4286L25.797 30.6906L26.2404 31.8808L26.7142 32.9885L27.211 34.004L27.7875 35.0253L28.3713 35.9081L28.9498 36.6437L29.2643 36.9862L29.571 37.2803L29.8678 37.5254L30.1524 37.7209L30.4227 37.8666L30.6766 37.9625L30.912 38.0088L31.1269 38.0057L31.3194 37.954L31.5182 37.8288L31.6551 37.6729L31.764 37.4715L31.8434 37.2259L31.892 36.9376L31.9085 36.6084L31.8919 36.2401L31.8412 35.8348L31.7755 35.4853L31.5446 34.6232L31.1967 33.6679L30.7313 32.6343L30.1497 31.5382L29.5376 30.5246L28.8397 29.486L28.0605 28.4341L27.2059 27.3803L26.2827 26.3359L25.2986 25.3119L24.2624 24.3184L23.3205 23.482L22.213 22.5717L21.0827 21.718L19.9409 20.9283L18.6573 20.1243L17.5303 19.4904L16.2938 18.8736L15.2358 18.4141L14.1071 17.9992L13.0591 17.693L12.5174 17.5694L12.0079 17.4787L11.533 17.42L11.095 17.3928L10.6959 17.3961L10.2713 17.4387L9.96483 17.5051L9.70318 17.598L9.48781 17.7161L9.29227 17.8887L9.183 18.0562L9.1176 18.2831L9.12493 18.5349L9.18712 18.7614L9.30048 19.0009L9.428 19.2004L9.78068 19.6161L10.0665 19.8839L10.3308 20.101L10.9524 20.5378L11.6938 20.9711L12.5489 21.3926L13.5104 21.7945L14.4323 22.124L15.4229 22.4282L16.4752 22.7027L17.5818 22.9438L18.7348 23.1481L19.926 23.313L21.1467 23.4362L22.3882 23.5159L23.6413 23.5512L24.7179 23.5457L25.9686 23.4976L27.2051 23.4053L28.4183 23.2701L29.5994 23.0937L30.74 22.8785L31.8318 22.6275L32.8673 22.3441L33.8389 22.0323L34.8626 21.6466L35.7852 21.2365L36.5984 20.8096L37.2955 20.3739L37.8709 19.938L38.3202 19.5104L38.4965 19.3025L38.6712 19.0502L38.7948 18.8083L38.8756 18.5349L38.8829 18.2831L38.8175 18.0562L38.6805 17.8577L38.5127 17.7161L38.2487 17.5774L37.9779 17.4896L37.5944 17.4199L37.228 17.393L36.7349 17.4L36.2819 17.4397L35.7928 17.5111L35.2702 17.6149L34.7163 17.7517L34.1338 17.9218L33.0217 18.3125L31.8413 18.8115L30.6095 19.4167L29.4851 20.0408L28.2026 20.8344L27.0602 21.6157L25.7875 22.5717L24.68 23.482L23.7381 24.3184L22.7019 25.3119L21.7178 26.3359L20.7946 27.3803L19.94 28.4341L19.1608 29.486L18.4629 30.5246L17.7806 31.6626L17.2117 32.7525L16.7593 33.7782L16.4245 34.7239L16.2891 35.2092L16.1894 35.6628L16.1248 36.0823L16.0946 36.4657L16.098 36.8107L16.1339 37.1156L16.2012 37.3784L16.2984 37.5977L16.4243 37.772L16.5771 37.8999L16.7553 37.9805L16.957 38.0128L17.1803 37.9962L17.4234 37.9301L17.6841 37.8143L17.9604 37.6486L18.2501 37.4333L18.4901 37.2254L18.7986 36.9216L19.0507 36.6437L19.6292 35.9081L20.213 35.0253L20.7262 34.124L21.2253 33.1207L21.7024 32.024L22.1499 30.8435L22.5121 29.7502L22.8868 28.4418L23.1764 27.2547L23.4596 25.8608L23.6629 24.6185L23.8228 23.3644L23.9381 22.1078L24.0081 20.8578L24.0326 19.4488L24.0064 18.2434L23.9234 16.9089L23.8067 15.7885L23.626 14.5731L23.3994 13.4379L23.1321 12.3938L22.8302 11.4505L22.4576 10.5203L22.0602 9.73922L21.8785 9.44223L21.6491 9.11577L21.465 8.89107L21.2358 8.65649L21.0545 8.50629L20.8322 8.36575L20.6166 8.27793L20.3695 8.24219L20.1384 8.28214L19.9605 8.37274L19.7673 8.54924L19.6255 8.75178L19.4808 9.05972L19.3835 9.36888L19.2968 9.80064L19.2512 10.2091L19.2312 10.6597L19.2381 11.1504L19.2727 11.6791L19.3359 12.2433L19.5238 13.3405L19.8095 14.5295L20.1463 15.65L20.618 16.9669L21.118 18.1737L21.7677 19.5558L22.4184 20.7923L23.1328 22.0233L23.9048 23.2366L24.6221 24.2745L25.4826 25.4234L26.3783 26.5225L27.3 27.5619L28.2378 28.5326L29.1813 29.4265L30.12 30.2368L31.1564 31.0409L32.1572 31.7251L33.1065 32.2847L33.9893 32.7169L34.4455 32.9016L34.8742 33.0468L35.2731 33.153L35.6398 33.2204L35.9724 33.25L36.2688 33.2423L36.5272 33.1986L36.7458 33.1198L36.9232 33.0074L37.0578 32.8628L37.1485 32.6875L37.1942 32.4833L37.1941 32.252L37.1474 31.9955L37.0538 31.7158L36.9128 31.4151L36.7244 31.0954L36.4888 30.759L35.9466 30.1187L35.2558 29.4451L34.422 28.7518L33.4529 28.0522L32.4854 27.4357L31.4264 26.8333L30.285 26.2536L29.071 25.7043L27.7955 25.1924L26.638 24.7803L25.2788 24.3551L24.0674 24.0268L22.8443 23.7419L21.4438 23.472L20.2261 23.286L18.8552 23.1317L17.684 23.0476L16.3894 23.009L15.1538 23.0297L13.9892 23.1068L12.9068 23.2366L11.8007 23.4396L10.8257 23.6953L9.99357 23.9947L9.67232 24.1392L9.31442 24.3278L9.00625 24.5235L8.7489 24.7244L8.54326 24.9286L8.39003 25.1339L8.28966 25.3384L8.24243 25.5402L8.25593 25.7757L8.32545 25.9642L8.44748 26.1436L8.6214 26.3118L8.84636 26.467L9.12132 26.6075L9.44503 26.7314L9.81606 26.8372L10.2328 26.9233L10.6934 26.9883L11.6267 27.0478L12.683 27.0278L13.8481 26.9231L15.1062 26.7299L16.2894 26.4821L17.5209 26.1623L18.7881 25.7712L20.0782 25.3107L21.3783 24.7836L22.6756 24.1938L23.7985 23.6304L24.9014 23.0267L26.1271 22.2934L27.3048 21.5209L28.4241 20.7177L29.4749 19.8925L30.4486 19.0549L31.337 18.2148L32.1335 17.3826L32.9125 16.4688L33.5618 15.5931L34.077 14.7706L34.4559 14.0157L34.6073 13.6307L34.7168 13.2732L34.7847 12.9453L34.8117 12.6492L34.7984 12.3867L34.7459 12.1599L34.6553 11.9703L34.5278 11.8195L34.3649 11.709L34.168 11.64L33.9389 11.6136L33.6795 11.6306L33.3915 11.6919L33.0772 11.7979L32.7385 11.949L32.3778 12.1454L31.6801 12.6125L30.9319 13.2241L30.1472 13.9762L29.3403 14.8627L28.6157 15.7571L27.8943 16.7446L27.1853 17.817L26.4978 18.9653L25.84 20.1796L25.2195 21.4488L24.6432 22.7614L24.18 23.9359L23.7588 25.1259L23.3325 26.4934L23.0103 27.6868L22.7022 29.0351L22.4598 30.3539L22.2834 31.6304L22.1724 32.8517L22.125 34.0056L22.1444 35.2088L22.2358 36.2966L22.3924 37.2551L22.6065 38.0718L22.747 38.4603L22.9008 38.8003L23.0661 39.0902L23.2411 39.3291L23.4239 39.5159L23.6127 39.6499L23.8055 39.7304L24.0003 39.7573Z" stroke="#F2F2F2" stroke-width="5.33333" stroke-linecap="round" stroke-linejoin="round" stroke-dasharray="149.09 149.09"/>
</svg>
