<?xml version="1.0" encoding="UTF-8"?>
<svg xmlns="http://www.w3.org/2000/svg" viewBox="-145.90258740020434 -146 291.8051748004086 291.61052505120045" width="800" height="800">
  <style>
    path {
      stroke-dasharray: 10826.15086891049;
    }
  </style>

  <path
    d="M 2.9391523179536475e-15 48 L 1.1391514288967441 48.106243566616186 L 2.2588518046773127 48.42419014386169 L 3.339771646563578 48.951492025148276 L 4.362823907601782 49.684251876462426 L 6.160904215812462 51.74295611994802 L 7.321890959404275 54.02524707116947 L 8.093539672464424 56.77284481651758 L 8.405478531338364 59.92842544212134 L 8.195359803290291 63.42558492606696 L 7.4099721729577555 67.18993735570166 L 6.3381371980841665 70.33946752811076 L 4.853248707366579 73.56407962772752 L 2.9429052740227326 76.81792745709663 L 0.5995462881234395 80.0539045834449 L -2.1794369569779968 83.22414621609026 L -5.391641794529237 86.28054004533784 L -9.02964698299497 89.1752407582214 L -12.030310757410492 91.21179872814302 L -15.256580098005672 93.1114995417955 L -18.699909363923638 94.85546394449905 L -22.350285124634667 96.42545233729079 L -26.196277394184 97.80397609244872 L -30.225099226114473 98.97440469183356 L -34.422674328132786 99.92106806297363 L -38.77371230898992 100.6293535155396 L -43.261791125689214 101.08579671204595 L -47.86944625728291 101.27816614108873 L -52.57826609240382 101.19554059898974 L -60.59846662986065 100.42146929004821 L -68.75238715022803 98.8224583267558 L -76.94227038870616 96.37511969699601 L -81.83171828739191 94.49436206674648 L -85.06760615693737 93.06830331094504 L -91.45305438577792 89.80451900207086 L -97.68012509294212 85.99780257049952 L -103.6975267385894 81.65978517852604 L -108.04278419443463 78.06744969145512 L -110.84825838451002 75.51599098706748 L -116.21334206735332 70.05096058768912 L -121.212846239478 64.12645616040622 L -125.80390757132989 57.77432954823436 L -129.9468469589299 51.03055435928097 L -133.60556904456314 43.93489124328031 L -136.74792607353885 36.530514453124994 L -139.3460423480526 28.86360349474772 L -141.37659594359343 20.98290402808351 L -142.82105479210293 12.93926249838025 L -143.66586470467888 4.785139247572386 L -143.90258740020434 -3.4258949230014286 L -143.52798711978946 -11.639673596857422 L -142.5440649350473 -19.801955734437286 L -140.95804039554872 -27.858947490473934 L -138.78228070178102 -35.757819525562475 L -136.03417812899752 -43.447214527146635 L -132.7359769589403 -50.877739755822276 L -128.91455169506966 -58.00243958690724 L -124.60113883729969 -64.77724322304704 L -119.83102496916894 -71.161383009089 L -114.6431943589522 -77.11777908294532 L -109.0799396918273 -82.61338644255122 L -103.18643992857085 -87.61950089574253 L -97.0103096234682 -92.1120207829475 L -90.60112432671502 -96.07166181765021 L -84.00992694155207 -99.48412287194556 L -80.66230113266525 -100.98208376289483 L -75.59424810822816 -102.96669836035085 L -72.19404378524902 -104.11450751680783 L -67.0778609386589 -105.57367465344711 L -61.962145491949734 -106.71953733880946 L -56.868601823262345 -107.55554209439481 L -48.486297667761285 -108.27467771355218 L -43.55465120258646 -108.31317851724842 L -38.720536382013385 -108.06771575085938 L -34.002854666149524 -107.54875760348285 L -29.419598845584183 -106.76811590954435 L -24.987755141442555 -105.73887163625483 L -20.72321129677595 -104.47529318320548 L -16.64067118762852 -102.99274797177824 L -12.753576444216455 -101.30760784083195 L -9.074035531916953 -99.43714880091174 L -4.509149430563737 -96.68627150799034 L -0.35348231469993013 -93.68284856552205 L 3.376379423576944 -90.47327358035778 L 6.668759603403922 -87.10513932668634 L 9.516979959653137 -83.62672970967456 L 11.919395757060522 -80.08650575677385 L 13.879378987496631 -76.53259095258991 L 15.405249364609672 -73.01226123855962 L 16.722591051811055 -68.72887932375059 L 17.418365407422066 -64.65515170090558 L 17.53909517016007 -60.87074967926855 L 17.14111688546405 -57.44815814423196 L 16.07110719311584 -53.908252336630966 L 14.475176516153507 -51.07387097861605 L 12.4927481968083 -49.01601836243084 L 11.402753570694827 -48.29412803562177 L 10.272336111285952 -47.78234704992578 L 9.120869828734104 -47.48280217022499 L 7.5864886784859795 -47.41429774642234 L 6.461561334979511 -47.60944250285619 L 5.380173052465005 -48.01260806947852 L 3.725789826932108 -49.13357700866415 L 2.851755286926306 -50.06477778831421 L 2.088207723583246 -51.179772610532595 L 1.106389354199788 -53.418895153943105 L 0.5501712611548336 -56.086222027364464 L 0.4842513642805066 -59.11826835996066 L 0.9644883402484046 -62.44326868240371 L 2.036898524442552 -65.9823754014183 L 3.3453110171905704 -68.91111561075539 L 5.068426948767455 -71.87742074505574 L 7.214308644007164 -74.83459832261732 L 9.78608405254017 -77.73515878780387 L 12.78188377520607 -80.53132552639858 L 16.194830319761063 -83.17554889888791 L 20.013079733131487 -85.62101896912475 L 23.1328700246181 -87.29721913460972 L 26.462530894020155 -88.81735273463644 L 29.991803696195184 -90.1634823764075 L 33.709030584403244 -91.3184458109445 L 37.60121606360261 -92.265961845025 L 41.65409646873531 -92.99073130091871 L 45.8522169692204 -93.47853243410687 L 53.126394301828746 -93.73004330562188 L 57.62813546521448 -93.5255325006448 L 62.209686051711905 -93.04249536814783 L 69.96888643425214 -91.59709106381423 L 77.79915256955123 -89.32771424408347 L 85.6016998190521 -86.21805384330955 L 93.27585941018383 -82.26418278738619 L 99.25485913270316 -78.49862698021906 L 105.03584965166735 -74.20824505842207 L 110.56867719544627 -69.40828911461347 L 115.8047286672558 -64.11895063654254 L 120.697422274431 -58.36518812857842 L 125.20267847995899 -52.17650595453815 L 129.2793664350769 -45.5866866365498 L 132.8897213028119 -38.63347932383229 L 135.99972818070262 -31.358247596541872 L 138.57946867350387 -23.805580188551936 L 140.60342654992138 -16.02286859488199 L 142.05074933740195 -8.05985587053667 L 142.90546316139356 0.03183877576247531 L 143.1566386156232 8.199214740108767 L 142.94528120301047 14.342022856610205 L 142.12952210381675 22.511976684093515 L 140.706934101823 30.608923005186902 L 139.2467338966703 36.60144723421541 L 136.78594782928445 44.44230264239557 L 133.75420625222984 52.06566297482728 L 130.17384461791616 59.422096824837595 L 126.07184018508279 66.46459454095968 L 121.47954615146418 73.14901749201441 L 116.43238191840727 79.43451819534275 L 110.96948266239527 85.28392702186883 L 105.1333118062218 90.66410153543634 L 98.96924036336287 95.54623490818562 L 92.52509746896725 99.90612027468894 L 85.8506967063609 103.72436834076666 L 78.99734308596344 106.98657604373471 L 72.01732573151465 109.68344456430066 L 68.49630061580396 110.81838380424455 L 63.19455732705114 112.2537265875703 L 57.88827464971585 113.36983463324465 L 52.599412672607734 114.16959532939987 L 47.349588539411464 114.6574964459866 L 42.15995732203239 114.83959386345396 L 37.0510957343843 114.72347037470075 L 32.04288935642555 114.31818580331696 L 27.154424017800512 113.63421873136323 L 22.403881966218293 112.68340017846187 L 17.80844341786152 111.47883962051408 L 11.950098069398798 109.50293831167217 L 7.777071137626776 107.76385415828636 L 3.808040038294926 105.82286731251341 L 0.054860753543301354 103.69760601837942 L -4.595772180342295 100.6091794898458 L -8.823602905769386 97.27134791047251 L -12.61277281094423 93.73112395757171 L -15.95236641055825 90.03663111574954 L -18.836489541729915 86.23659367658126 L -21.264295351720225 82.37982175273609 L -23.664187450959872 77.55269771858826 L -25.088058160611208 73.74369092128724 L -26.272612872057582 69.12303353021866 L -26.833124674028383 64.73713546002364 L -26.752980341996626 59.89333954175483 L -25.95075923786867 55.61983042410331 L -24.54761066696107 52.018253369594305 L -22.678599281614304 49.1693221573292 L -21.614574182424686 48.0461292232759 L -20.103910527520885 46.872770192286204 L -18.926925770365315 46.2400764380385 L -17.335960852115097 45.72887866409455 L -16.15175546489792 45.59419450287568 L -14.621606283657057 45.74191474932145 L -13.535260585654225 46.092896109637586 L -12.522099618803516 46.64340117800432 L -11.04484105171252 47.9837608939489 L -9.900056493676125 49.81480759596805 L -9.160761346566215 52.08362302662924 L -8.892371435445543 54.72788597327022 L -9.1515485645421 57.676924180193886 L -9.985189169142547 60.85290502939727 L -11.090470015324033 63.501014597221584 L -12.600238327116582 66.19593584511358 L -14.523089558288444 68.89137229061868 L -16.86270180275736 71.54019059784264 L -19.617769282267187 74.09492977421773 L -22.781988022730143 76.5083147274247 L -25.417065771891142 78.19753040270956 L -29.26726042240197 80.25217656317801 L -32.39669955247805 81.62078054434281 L -35.72239725793903 82.82169697849645 L -39.232938465217664 83.83780482890549 L -42.915567848418966 84.65285207029234 L -46.75625857185173 85.25155701119859 L -50.73978859182346 85.61970412468446 L -54.849824078780166 85.74423382682642 L -61.9334459390943 85.37889967674582 L -69.23402797755965 84.25809238554523 L -76.65991621936712 82.34632587270207 L -84.11508137347684 79.61976578725938 L -91.50061932997089 76.06671693688229 L -97.29156940235129 72.62928061335013 L -101.5325776045429 69.70773905085625 L -107.0102621472828 65.3629232455483 L -110.95851116880401 61.775470853748956 L -115.97053994042369 56.569287119089815 L -119.5146897647276 52.360358908499464 L -123.9177561484191 46.364888919870516 L -126.9549848747737 41.59782747631469 L -130.61932523939132 34.90929551688908 L -133.05853476083172 29.664614165188173 L -135.21708456564897 24.243669053568382 L -137.08218015257535 18.665043346200427 L -139.09294057996084 11.015434576338393 L -140.2313456285666 5.146160433496538 L -141.0438670569186 -0.8127582117950551 L -141.52406170748134 -6.839504988896035 L -141.63922064812246 -14.942156081657783 L -141.32793761393003 -21.04006449206979 L -140.67451160453496 -27.130560289381442 L -139.67956831292486 -33.19078631810577 L -137.8259073631228 -41.18467621239055 L -136.04579918476276 -47.08611177502133 L -133.93813434118215 -52.88241737839366 L -131.51058015379428 -58.552003380845996 L -128.77234556351328 -64.0738915276756 L -125.73413107589732 -69.42782842321894 L -122.40807027111354 -74.59439489062042 L -117.54908268774042 -81.15989143958832 L -113.60610251743527 -85.8192000973433 L -109.42515939265972 -90.23373476278593 L -105.02373164847776 -94.38882734870019 L -98.8442443196696 -99.5025087972626 L -94.00171853965429 -103.00275796960867 L -89.00356868116567 -106.20460761967621 L -83.87081753403959 -109.09958465292966 L -76.8550621053119 -112.47049094698153 L -71.49268815443024 -114.6253467905496 L -64.25113624214416 -116.99476405899637 L -58.780222159563536 -118.39245534965008 L -51.47516780326115 -119.75154471083495 L -46.017201159488074 -120.39586237876101 L -38.80904486352852 -120.76346767684984 L -31.725894556878167 -120.58336635109288 L -24.816099519694355 -119.87530661640191 L -19.77526442990534 -119.01225308866884 L -13.2777258924228 -117.44137647988583 L -7.072836584559013 -115.41956800516635 L -1.197772449332774 -112.98218309480596 L 4.314179321666742 -110.1679163115445 L 10.649599237740162 -106.18373856909 L 16.325589448438837 -101.76250009729686 L 21.30674666132933 -96.99541958974447 L 25.569670325586006 -91.97682192007962 L 29.103231132315436 -86.802586877366 L 31.90864070573199 -81.56857762609661 L 33.24745810410554 -78.4388131571764 L 34.33371329477025 -75.34140822496946 L 35.173880238857194 -72.29571879355242 L 35.77589183539677 -69.32046620628498 L 36.149085155143375 -66.43362791938202 L 36.30937752235694 -62.75151423610367 L 36.192373211854225 -60.13593568742221 L 35.74576529991174 -56.87124830838273 L 34.999300141494146 -53.8900477581719 L 33.990969106153536 -51.220131184729404 L 32.76134123836178 -48.88503293245974 L 30.978310044656514 -46.465550974664545 L 29.409318408442775 -44.946227040242505 L 27.344815944502916 -43.58099323743689 L 25.666956715069805 -42.91927584403179 L 23.61249914888325 -42.625557133637095 L 21.6882972684105 -42.908740913601875 L 19.979907592007468 -43.740814620334035 L 18.823207782862436 -44.775689139896706 L 18.103864639431492 -45.75118963556329 L 17.371442175109703 -47.294784188133576 L 17.010479616326652 -48.617273628183476 L 16.80473316586421 -50.572356954390095 L 16.871877803184073 -52.16192066795863 L 17.617539237547877 -55.58420284077229 L 19.22808767215093 -59.20966415635535 L 21.742481032320416 -62.88569373140172 L 25.175049616193714 -66.45461304668189 L 28.72985289101238 -69.2322033865549 L 32.895601094235566 -71.73431224904441 L 36.64731720168865 -73.47846927964605 L 41.825744526902454 -75.26614454389056 L 46.32729090940217 -76.33293661219673 L 52.35163077628985 -77.15098626669987 L 57.44578720282538 -77.35202570317914 L 62.74167588321476 -77.11777908294536 L 68.19687248016689 -76.42274374846124 L 73.7663296850188 -75.24575785208975 L 77.99006890591272 -74.03659259995587 L 82.23098315261093 -72.5416857031397 L 86.46808087641234 -70.75736927716356 L 92.07477566391437 -67.92472461292778 L 96.21986513267048 -65.45981274166886 L 100.28966837187932 -62.70483194059252 L 104.26276642118566 -59.66309192173479 L 108.11796876327394 -56.33951227171969 L 111.83443491272078 -52.74060264457044 L 115.3917942040774 -48.87443376616757 L 118.77026308541318 -44.75059941246728 L 121.95075923786862 -40.38016957589679 L 124.9150118599971 -35.7756350854276 L 127.64566747775848 -30.950843995361513 L 130.12639066681064 -25.920930105580865 L 132.34195910307727 -20.70223402163623 L 133.66472089205416 -17.126803870066112 L 135.92283414920945 -9.76936951480825 L 137.26402689181597 -4.093110743989208 L 137.98468670164033 -0.24478817841269196 L 138.9982251403444 7.577939200169782 L 139.37583460328057 13.530199425389371 L 139.44228960017352 17.52673894571376 L 139.12534864574394 25.5580310530106 L 138.49140804184944 31.588506457342316 L 137.87969205072042 35.599502370413084 L 136.20386433136827 43.56872174416636 L 134.5543155281391 49.47299319610128 L 133.2699711663957 53.36209618422861 L 130.2660997242332 60.997857831826934 L 127.64123233621453 66.57482611035451 L 125.7191847822815 70.20974032879656 L 121.47610683220614 77.2531367183358 L 116.72507803531332 83.95628392705791 L 114.16910674521557 87.16657856575668 L 110.12202667314799 91.79095883814476 L 104.35335507769568 97.57507368815655 L 101.32085802505377 100.29353658277097 L 96.60215308059198 104.14282434144693 L 91.69657848549073 107.70707071107589 L 86.62410317088896 110.97527148563782 L 81.40541372229758 113.93791372740426 L 74.25658729235246 117.39923655459427 L 68.78035056976871 119.62063810606364 L 61.368146389145885 122.07499328872062 L 55.7551908915453 123.53210675871688 L 48.24231897371171 124.96261558068423 L 42.61501137225149 125.6532250730267 L 35.16379552166297 126.07082459576056 L 29.64238955365423 126.01345256541735 L 22.409931923873117 125.45634227216252 L 17.108993405150308 124.6895158937412 L 10.242515755261572 123.22176297457865 L 5.267535517502516 121.80266369042737 L -1.0999571787438212 119.51201161144357 L -8.579928194922317 116.05875392443947 L -15.4672218833288 112.02188339073118 L -21.70745107595969 107.48496323990125 L -27.257398094170046 102.53712344815048 L -32.085601272992356 97.27159590070286 L -34.62754047789008 93.99958477592696 L -36.90042429804224 90.66860136528662 L -38.90382084081076 87.29957848879492 L -40.63889864584147 83.91333531516023 L -42.108411149428235 80.53045578014878 L -43.31667194032367 77.17116859835212 L -44.269520956469485 73.85522956444079 L -45.15554464358607 69.53443953921973 L -45.54338099414229 66.39296581587922 L -45.71167985172902 62.369511097802565 L -45.50774511847508 58.56997797676579 L -44.96385828899442 55.029539032498406 L -44.11564627088037 51.779646584163906 L -43.00167774829467 48.84771476398861 L -41.66302947287316 46.2568444684548 L -39.739618703055655 43.525699105202435 L -37.62018508745239 41.3819432997885 L -35.394579268824316 39.839504302652365 L -33.153410078777554 38.900221825827174 L -31.838676948229526 38.622407509417656 L -30.569760158041216 38.55400150220422 L -28.607046918514502 38.88896781148539 L -27.54982590676366 39.34673030293975 L -26.603757295077738 39.98562389025236 L -25.542939467541377 41.10015850923346 L -24.917233787201372 42.11699601068215 L -24.33570483542839 43.68787447510192 L -24.105245366186804 45.00790744861065 L -24.093113625573356 46.926471661937924 L -24.317623770633883 48.46211335697744 L -25.400190754556387 51.703919295371975 L -27.362450238070384 55.047108337545865 L -29.68520620424184 57.798074658174905 L -33.29545411008541 60.92030113914747 L -36.97246793720042 63.266472607830664 L -41.228063377745 65.28589684572508 L -45.022988940643586 66.60933323329789 L -50.21325096784929 67.83166143245529 L -54.68614002189663 68.41798226444244 L -59.40703360651454 68.61903416343421 L -64.3379538064166 68.40423266104219 L -69.43775725418607 67.74692307123921 L -74.6625472549418 66.62469027967975 L -79.96611551265605 65.01962524275167 L -83.96663871541794 63.490854826524874 L -87.96367604381608 61.6792161498523 L -91.93611981784885 59.582531379365726 L -97.1576318247147 56.34278533816812 L -100.98976658955698 53.5815487056659 L -104.72626412018565 50.53963288259405 L -108.3460784332048 47.22184031261858 L -111.82850387507592 43.634561100717114 L -115.15329497137579 39.78574476966707 L -118.3007838386659 35.684862977792605 L -121.2519944782502 31.34286340808588 L -123.98875328901717 26.772115089999463 L -126.49379515832351 21.986345464876457 L -128.75086451535748 17.000569553878126 L -130.11028492630598 13.573569099082011 L -132.46167751637137 6.49501986364463 L -134.29809870540365 -0.8466283298419366 L -135.59326387725488 -8.405272400576374 L -136.32543855262864 -16.132298595149493 L -136.47767253818083 -23.97704769552405 L -136.03798602195272 -31.88730167955451 L -134.99950568386438 -39.809786863036706 L -133.82647868392812 -45.72731015382113 L -131.73920415208391 -53.541675893283646 L -129.06106909894106 -61.22054607934623 L -125.80467609076214 -68.71130103770494 L -121.9876698733899 -75.962719936019 L -117.63257495975321 -82.92547688065396 L -112.76658403381191 -89.55261818575954 L -108.80066855498336 -94.27606228465025 L -103.1191353871491 -100.21163400513463 L -98.58384827952341 -104.37066138958357 L -92.20468128900026 -109.49793226326445 L -85.4868157113833 -114.11909817152991 L -78.47738351403808 -118.20750215230025 L -71.22580278700829 -121.74119281338906 L -63.78329637421193 -124.70312591884823 L -56.2023927513148 -127.0813164021362 L -48.53641425778025 -128.86893926868746 L -40.83895791989899 -130.06437837580913 L -33.163374177002886 -130.67122261357375 L -25.562248843765317 -130.69820955099533 L -18.086893607320054 -130.1591171517005 L -10.786850269179972 -129.07260469698014 L -3.709413799586252 -127.46200457602626 L 3.100820922615586 -125.35506710795346 L 9.602384056146612 -122.78366104267707 L 17.237814362932138 -118.9708790750211 L 24.266400012708605 -114.56529033328793 L 30.633004138305303 -109.65089642713046 L 34.11644082640489 -106.49513559633836 L 37.33802886284051 -103.20853686371542 L 40.29184989153596 -99.8116644453646 L 42.973573097677594 -96.32538736553877 L 45.380471547303074 -92.77075766245524 L 47.511429210284696 -89.16888776288228 L 49.366938632005294 -85.54082773682873 L 50.94908927326119 -81.90744314417987 L 52.26154659202276 -78.28929418154942 L 53.30952199436037 -74.70651682992207 L 54.09973383477794 -71.17870669188568 L 54.76672145961388 -66.59309666691891 L 55.01339701938116 -62.181538988369645 L 54.86715014331976 -57.983937740109354 L 54.35920683496278 -54.03695145113419 L 53.52427154793368 -50.373623436550865 L 52.40013372610274 -47.023050644223474 L 51.02724290559497 -44.01009440757811 L 49.02647889452906 -40.74927909846687 L 46.790809144123756 -38.07698169263848 L 44.409949945658305 -36.01085336228389 L 41.97479696636527 -34.556471657303604 L 39.575862602248066 -33.70730342658328 L 36.86943688136362 -33.460339537616626 L 35.629613497436196 -33.63753267105135 L 34.48873706449466 -34.003790630790014 L 33.46337115502344 -34.548861092152976 L 32.569193467282936 -35.2611974048822 L 31.60627142490419 -36.44893576453484 L 31.073473246183344 -37.49994369287133 L 30.716516564465504 -38.671367430859966 L 30.546192009707905 -39.946981124865275 L 30.801881369654506 -42.741834945600935 L 31.89919369503841 -45.74004496707898 L 33.873030522239844 -48.78917177463371 L 36.19555906562049 -51.256020323314004 L 39.126862250466765 -53.558419256043585 L 42.64744153960054 -55.60673536063544 L 46.72599658778386 -57.31426693610519 L 50.3622903005856 -58.37945428366142 L 54.30179698582562 -59.134284772467424 L 58.513587630517584 -59.54211377316818 L 62.962914575351206 -59.56955224084294 L 67.61155898014408 -59.186846276481134 L 72.41821529970085 -58.36821958215658 L 76.1005372401224 -57.4550764044761 L 79.8276568979387 -56.27713822453881 L 83.57958763211572 -54.828488970800336 L 87.33586477333046 -53.10474394767832 L 91.07566338601862 -51.103084016901576 L 94.77791834871002 -48.822280722607886 L 98.42144605693332 -46.26271220850667 L 101.98506704339836 -43.426369828805896 L 105.44772880470711 -40.31685540853122 L 108.78862812246521 -36.93936916309774 L 111.98733216945845 -33.300688341131966 L 116.9486201954474 -26.679079256906494 L 119.67233429416953 -22.388645059360197 L 122.1839972781363 -17.874769423432973 L 124.46643137252818 -13.15104292841 L 125.85267187489178 -9.892605499201636 L 128.2800005140697 -3.134769044977447 L 130.21968588871175 3.910344496419362 L 131.6423370407682 11.199101529889587 L 132.52288527960187 18.685012319162198 L 132.840855144834 26.319175111349864 L 132.58058925451817 34.05074557600066 L 131.7314247051433 41.827426763982885 L 130.28781918766924 49.59597457953272 L 128.24942550043778 57.30271359829003 L 125.62111367005268 64.89405795682939 L 122.41294042972619 72.31703198619971 L 118.64006634561132 79.51978526378595 L 114.32262141967938 86.45209681447932 L 109.48552052725601 93.06586330300846 L 104.15823056291318 99.31556622328202 L 99.86122148437451 103.7382393739176 L 95.32308774878507 107.91547892282189 L 88.92648399532065 113.07674244805395 L 82.1742678851051 117.74107131397159 L 75.11234932331232 121.87956680950771 L 67.78917486413587 125.46791050398443 L 60.25525819403352 128.4865924757348 L 52.562690078600745 130.92109104681418 L 44.7646327849657 132.7620021979564 L 36.914804150693776 134.00511735503943 L 29.066956576024857 134.6514487689123 L 21.27435626774919 134.70720224901 L 13.58926805974682 134.18369755218657 L 6.062451077005698 133.097237266084 L -1.257329602353706 131.468925555564 L -8.323770298011407 129.32443865581484 L -11.748300565020614 128.06783663563795 L -16.73475361127918 125.96400429882978 L -19.951759350903444 124.42194646188626 L -24.604942410350827 121.91135520273812 L -29.038704928527963 119.17870669188578 L -33.24005704697086 116.24168708078659 L -39.69499549974767 110.94318488123662 L -43.223843177807495 107.55377038261736 L -46.48497240884343 104.03128015536363 L -49.4723215944558 100.39641616631098 L -52.18141931541844 96.67019553592885 L -54.609401449569546 92.87382872966359 L -56.755018975401356 89.02859685883654 L -58.61863642212696 85.15572880227529 L -60.20222098124723 81.27627886071272 L -61.50932234875033 77.41100565276213 L -62.83107808418112 72.31444847921061 L -63.51550838224308 68.56043419950652 L -64.03517443799987 63.68226267106781 L -64.12815876797171 58.98837551708736 L -63.82269062776112 54.51848735016464 L -63.15078494758289 50.30899160792556 L -62.14787731731478 46.39259736602384 L -60.852424161234794 42.79800533074195 L -58.88445769398377 38.794059967883825 L -56.60840776855602 35.36842042896383 L -54.11274136797335 32.54717222833804 L -51.48814338335446 30.34444220691871 L -48.2970074474147 28.519573302274477 L -45.207544408979416 27.568118139897276 L -42.3698974565708 27.44615397433869 L -41.089953650460174 27.67610864571485 L -39.92481906881808 28.0865266613924 L -38.890051763881644 28.66567057493042 L -37.73815515214604 29.677791045453777 L -37.06227496954243 30.598365525419734 L -36.56087800791863 31.640306061407298 L -36.244558342037145 32.78727755354887 L -36.122564947119244 34.02213828312635 L -36.49148348377605 36.68357109554756 L -37.44879369096911 39.00763327531473 L -39.011589427172375 41.33291939117782 L -41.181005910798724 43.568721744166425 L -43.94606798457008 45.62467681638591 L -47.28382115481001 47.412322785680644 L -50.34348553597663 48.591962662376545 L -53.72486130396387 49.50402943577198 L -57.40073252673445 50.10965504115157 L -61.3398159655423 50.3728805788804 L -65.50707535329633 50.26106300077878 L -69.86407560824794 49.74524789196902 L -74.3693733418208 48.800504463056114 L -77.81926536724478 47.79789277398642 L -81.30846791398204 46.53529961844256 L -84.817032552219 45.00720005120174 L -88.32456226513767 43.209605469394695 L -91.81032973936105 41.14009554171984 L -95.25339780076894 38.79784104155799 L -98.63274129728511 36.183617445577354 L -104.06642657521974 31.22940508209303 L -107.17370011465903 27.905937985348967 L -110.14138356314572 24.327042859665738 L -114.72375236666613 17.81747320559451 L -118.77570073724254 10.668719156222146 L -122.21540362022915 2.938759825172433 L -123.95403303065214 -1.950253266622823 L -124.9684146900879 -5.304294277674859 L -126.631847175964 -12.216530557990268 L -127.78420043208756 -19.364560027150688 L -128.40049686129092 -26.702213261921067 L -128.46033086757268 -34.18089308062447 L -127.94809621634641 -41.75004233416574 L -126.85316508539076 -49.35763250793614 L -125.1700169395194 -56.950668139961195 L -122.89831587759333 -64.47570189687659 L -120.04293563003802 -71.87935503869309 L -116.61393192308748 -79.10883794686062 L -112.62646246696937 -86.11246538859345 L -108.10065536363703 -92.84016124363905 L -103.06142725988803 -99.24394752721182 L -97.5382530882836 -105.27841270358091 L -93.09843750877357 -109.53626201590053 L -86.81198200290324 -114.82442877067088 L -81.84424658653228 -118.47904620135466 L -74.91820573411728 -122.91034889738688 L -67.6888802032961 -126.81085811469612 L -60.2047973662188 -130.15629289444053 L -52.51657003830605 -132.92717560176152 L -44.67640730281363 -135.10901433760955 L -36.73760950704836 -136.69243512108355 L -30.751184689895968 -137.4845805747687 L -22.76946695271762 -138.0138674098664 L -14.837090574166721 -137.9458179774907 L -7.006830458145861 -137.29054010852195 L 0.6699012308620228 -136.0631756389141 L 8.143549107307058 -134.28373418340584 L 15.366889138963229 -131.97687800780932 L 22.29547891061583 -129.17166022722242 L 25.63621914921989 -127.5923710605796 L 30.479234614395835 -125.01516226088147 L 35.107041044940644 -122.2024311336586 L 39.5056290594809 -119.17132482411272 L 43.66233577701673 -115.93992062409069 L 47.56590943164489 -112.5271208230119 L 51.20656580028552 -108.95254300629796 L 54.576036122308004 -105.23640643737582 L 57.66760623927303 -101.39941518188331 L 60.476146733909324 -97.46263865142512 L 62.99813389961523 -93.44739025903549 L 65.91197235157645 -88.0087084840862 L 67.76072035636709 -83.89369661638459 L 69.32284615174255 -79.77144446584838 L 70.60179917451222 -75.66290610763738 L 71.87545791839422 -70.24162986675246 L 72.67084516780622 -64.92841236525831 L 73.00863393865507 -59.76833571064278 L 72.91385712120116 -54.80390264206181 L 72.41561483193077 -50.0746116205946 L 71.54674033597612 -45.61656407647727 L 69.99487304291566 -40.4743372278699 L 68.42887249873348 -36.73863168921887 L 66.13498611731654 -32.57900314240039 L 63.54837123627702 -29.017572111771845 L 60.18466972200058 -25.564432505029107 L 57.272592924382764 -23.381557677305107 L 53.78416641862332 -21.58973716218725 L 50.44818188906548 -20.671679961001093 L 48.883751743898486 -20.52440669462889 L 46.94470961479509 -20.631929574369696 L 45.62198634367338 -20.926938594809616 L 44.06312147021142 -21.583418923811212 L 43.066004724611034 -22.255872025695854 L 41.990444683968974 -23.36488739201062 L 41.389108838179304 -24.335583211068986 L 40.97496160965355 -25.406858774639307 L 40.72334982364799 -27.368073101337046 L 40.846412339240246 -28.620442274452323 L 41.18100591079875 -29.906497269930806 L 42.21653346710125 -32.07236749519354 L 43.85258097768961 -34.18799034765876 L 46.0819240442205 -36.16305723429441 L 48.885319390788325 -37.908741574467555 L 51.520915360463256 -39.08233163848125 L 54.48320654224348 -40.01219282096781 L 57.74669716897226 -40.65872159026728 L 61.28173740994954 -40.98507648532702 L 65.05482400690411 -40.9575944567831 L 69.02894189733694 -40.54617460798229 L 72.11741203452215 -39.969738756968695 L 76.34507646880014 -38.82593016752224 L 79.57369316403974 -37.676456264824 L 82.83023514743421 -36.270047324330406 L 86.09464696258624 -34.60206301548485 L 89.3464930223868 -32.66941465286836 L 92.56507711960847 -30.47059184717672 L 95.72956367697563 -28.005679975918007 L 98.81910003292249 -25.276368366563677 L 103.74552047987562 -20.149623597125583 L 108.31181211457144 -14.323263822312068 L 112.42688083149085 -7.834289218562752 L 116.0044343230225 -0.7311843015252819 L 118.96440877710413 6.926755750552559 L 120.83872291968002 13.406358396411889 L 121.93443714471783 18.446400932972793 L 122.95820923006917 25.37278405406048 L 123.38393028843726 30.69762617020794 L 123.47769354446845 37.93279925329052 L 123.18277613205771 43.433743506097436 L 122.2915498479268 50.82695790449264 L 121.24451283356214 56.38737693465962 L 119.33972814283028 63.77958618135051 L 117.52939820203886 69.2783848017988 L 114.61000918947323 76.50697866000468 L 112.04603742724765 81.82220634422461 L 108.13878177512265 88.72587051661716 L 104.85151645146851 93.73837125802785 L 101.26853960331451 98.58611090510888 L 97.40060371156218 103.24902641860797 L 93.25990623518058 107.70786123435101 L 90.35455785005712 110.55794030238422 L 84.21585114841973 115.94092764727202 L 79.34350104902387 119.68160916920954 L 75.97698450138265 122.0257188671242 L 68.98438166608689 126.33624382038812 L 61.68374053325699 130.1187197982122 L 57.93280532158747 131.8038230946944 L 52.19806503514815 134.06601814203273 L 44.38308431560092 136.57480577895413 L 40.41800076598495 137.60755825191416 L 34.417066100470976 138.87578792095098 L 26.351610446616476 140.0379943324757 L 22.3065733637945 140.39159792049935 L 16.242655138640075 140.63790240390512 L 8.199534945971688 140.43928063575845 L 4.211007425204572 140.1165131496764 L -1.7120529697202174 139.35740328937231 L -9.464358589790418 137.8428082273222 L -13.264283098055502 136.87574853173305 L -18.851922161638146 135.17116692543937 L -26.06229773901167 132.44201101343137 L -29.552297415276232 130.89027734439168 L -34.62864370192516 128.34035645018474 L -39.499947191102244 125.53712955064483 L -44.150814209541664 122.49679233743127 L -48.567123197728954 119.23657885633402 L -52.73609777865299 115.77466186152905 L -56.64637203789422 112.13004795795696 L -60.28804764261705 108.32246813939162 L -63.652742474334545 104.37226435630132 L -66.73363049947874 100.30027277049022 L -69.52547265262864 96.12770437251089 L -72.02463855928275 91.87602365303465 L -74.22911897819321 87.56682603041293 L -76.7095943924297 81.76908316533954 L -78.22777248740482 77.40947547499059 L -79.80216558043999 71.62178691341359 L -80.6523025573303 67.32665088555879 L -81.35817376468384 61.698725110214234 L -81.59439577926565 56.22552809958198 L -81.38589487365846 50.95010483823252 L -80.76169684139771 45.91251596142459 L -79.44716325341284 40.00551434601803 L -78.01268619612341 35.63144034267503 L -75.8064032431544 30.648887038219282 L -73.76271391459986 27.07872887239702 L -70.93309770264311 23.164793317893906 L -67.8822509939087 19.882250993908574 L -64.05879964183003 16.792293017872968 L -60.208455918572554 14.624907461892793 L -56.4870186003204 13.352259642892154 L -53.04312668101226 12.922415267801643 L -51.46885799516693 13.001064902055358 L -49.559210932720376 13.385432100277445 L -48.28822497283833 13.866817329086192 L -46.83432581354279 14.73943176028384 L -45.940218444783056 15.54721106232219 L -45.03009934406653 16.79768888295835 L -44.3751840061317 18.581755743506886 L -44.28605512724373 20.532644224398002 L -44.78324704296609 22.56269637030235 L -45.6093547837652 24.183479370140084 L -47.17555071346456 26.129564224951498 L -48.847178708569345 27.56664872509017 L -50.87807312574664 28.848625005683076 L -53.25128335048505 29.93210470470553 L -55.945276249389295 30.775624252645724 L -58.934154467488945 31.34010898087608 L -62.187920979878946 31.589312719182 L -64.78188579810498 31.54932387766983 L -68.4158175513952 31.169524604857 L -71.25110652517733 30.625341865061593 L -74.16092925795797 29.848051734757437 L -77.12679461522781 28.829415379173128 L -80.12955348003243 27.562639982552525 L -83.14951110975984 26.042426832441745 L -88.16618924515042 22.936023953665938 L -93.0797680797369 19.108077281982894 L -97.79455860216773 14.563132897203088 L -102.21559784947227 9.31805322644729 L -106.25021325503583 3.4018528296323676 L -109.80955478063308 -3.1446630352846516 L -112.25846954168097 -8.8010897130399 L -114.30985099114594 -14.796287594663823 L -115.92711423377867 -21.09471793472804 L -117.07724105919559 -27.65716266759494 L -117.61562067114114 -32.72678746669685 L -117.880801820535 -39.647172415352365 L -117.60923469341986 -46.70791596785712 L -116.78415021668823 -53.85959157721597 L -115.7947629354891 -59.25235383158189 L -113.97549785145961 -66.43959408198067 L -112.23436310745055 -71.79885527493009 L -109.41185682404799 -78.86050013467043 L -106.92257190730639 -84.06483027055 L -103.1155050409333 -90.83950264128453 L -99.90243518242585 -95.7691348881526 L -96.39167230671742 -100.54555760813614 L -92.59295016823293 -105.14831028184018 L -87.0996456984162 -110.98117042272355 L -82.67509813264559 -115.10340931087929 L -78.00541460342757 -118.98962961753674 L -73.10629743491647 -122.62328309227021 L -66.24657779887461 -127.04886205932044 L -60.879624884142174 -130.03553918287452 L -55.343566288588526 -132.72336531539824 L -49.65852304761904 -135.10141431338116 L -43.84536214593712 -137.16024092339532 L -37.92558382822929 -138.89193256563578 L -31.921205313555312 -140.2901524497209 L -23.82255108157303 -141.62777715416405 L -17.708401341931562 -142.23234278391294 L -11.58522979772914 -142.49406530286225 L -5.475892767837744 -142.4137135726134 L 2.60913433422421 -141.7788817533794 L 8.598297684466997 -140.9125934930776 L 14.499107068314968 -139.71861730328408 L 20.29017285020349 -138.20471557256502 L 27.805150124667183 -135.70477181429862 L 33.260846484762816 -133.48299380201337 L 38.54084012773007 -130.97781498969823 L 43.6273533193368 -128.20314277154995 L 50.079747301381744 -124.11069139452687 L 54.65201980894283 -120.76801223526924 L 60.3661662129224 -115.98019231737497 L 64.3493318941459 -112.16537874876187 L 69.23701949037265 -106.81763374452696 L 72.57406355874542 -102.63722526331942 L 76.57200304655001 -96.87706086707875 L 79.22530252480361 -92.4449590992541 L 82.29678174120804 -86.42737540853281 L 85.38342413941663 -78.80418637147096 L 87.63928538684539 -71.16198421198337 L 89.08203050558794 -63.598857690116326 L 89.7412713747988 -56.20929306804776 L 89.6579897068223 -49.08270558134727 L 89.27265811588558 -44.967801641839536 L 88.65125980370817 -40.994209685934074 L 87.80782436271336 -37.17746028935215 L 86.75746858166603 -33.531904355193426 L 85.5163017968111 -30.070635244157383 L 84.10132563062083 -26.805418377032833 L 82.53032870412612 -23.746628713814427 L 80.2249670153046 -20.004572494882506 L 78.36269134049255 -17.45959327463653 L 75.7392356190155 -14.425295651243095 L 72.99860945984118 -11.808766594113278 L 70.18841178032481 -9.613474846719352 L 67.35612673518048 -7.837887779470816 L 64.54861191840487 -6.475516603571602 L 61.81159406115334 -5.515013417304143 L 58.5564551665187 -4.854613033022236 L 55.56163775925252 -4.755489616604077 L 52.90207482166492 -5.166176498946239 L 50.64496499603024 -6.025887863900677 L 49.50854375345843 -6.728839686340353 L 48.54912610584557 -7.5525593473332355 L 47.36884002544658 -9.147366090605527 L 46.92446333248289 -10.20827488887997 L 46.68524925777017 -11.324568540800016 L 46.692515043478735 -12.866227126899695 L 46.94576456247754 -14.037384080275032 L 47.61496532519102 -15.58180530138484 L 48.363918872221404 -16.70206383178753 L 49.68612133547603 -18.108359469181526 L 50.91418080356449 -19.07300466291455 L 53.94848710061637 -20.691234588903118 L 57.69275623411123 -21.779025032628034 L 61.28949468005692 -22.187772702761396 L 66.08196369454882 -21.982747305465463 L 70.38697335069105 -21.16656716129182 L 74.88908145205517 -19.715032454929453 L 78.57466349323543 -18.072877751656584 L 83.21047954084915 -15.398786706135771 L 86.88401920435412 -12.754025460953612 L 90.47383446289187 -9.658232609662091 L 93.93129090158696 -6.115179898980712 L 97.20814336980118 -2.133670796461742 L 100.25704842212207 2.272516461906947 L 103.03206863766744 7.084737635545879 L 104.907019036772 10.94648768879297 L 106.58536194946198 15.012066651142533 L 108.0502292428209 19.268586909401236 L 109.64396822375537 25.216271961607 L 110.5507039468396 29.861056448306073 L 111.19520881836874 34.64488775523246 L 111.5654449713485 39.549837485798875 L 111.65071077100096 44.557054393490425 L 111.44170872095322 49.646867102992836 L 110.93060539886818 54.798891741755675 L 110.1110830698988 59.99214386240469 L 108.97838267449373 65.20515401140896 L 107.52933793697281 70.41608627816572 L 105.76240039265308 75.6028591412761 L 104.40780947583032 79.03632189809277 L 101.27682752862005 85.81510809217353 L 97.59008613164278 92.43276822703184 L 93.36003929830403 98.83770100254264 L 88.60417556415723 104.97959573273663 L 83.34486959582728 110.80993158626687 L 77.60918410627288 116.28245950741906 L 71.42862407769694 121.3536618744357 L 66.52255769962586 124.8692881184044 L 59.651575590585544 129.14320082875253 L 52.4427384595703 132.91361648416031 L 44.94128573045933 136.15084290322193 L 37.19516981768965 138.82966248123734 L 29.254597819779097 140.92958209145274 L 21.171550307370367 142.4350355641535 L 15.047767706613062 143.1675049700384 L 6.844010495868442 143.61052505120045 L 0.6918338542878429 143.54182955881862 L -7.46677412169654 142.91818803287617 L -15.525624108022035 141.69389682475884 L -23.432126886590357 139.88183522859745 L -31.135253572862133 137.49987574012954 L -38.586024282505335 134.57070089043742 L -45.737975744021895 131.12157181606324 L -52.54760308474823 127.18405094711233 L -58.974771283537464 122.79368166612181 L -64.98309209582727 117.98962823219814 L -70.54026261224244 112.81427967277864 L -75.61836200692235 107.3128217150267 L -80.1941034621567 101.53278115663011 L -84.24903871733312 95.5235473582016 L -87.76971317787311 89.33587577365228 L -89.32689019059674 86.19123526848645 L -91.40701105640576 81.42902591509849 L -94.19184122516575 73.42544505493844 L -96.13173803435852 65.4257887302234 L -97.24655451046024 57.52839291647856 L -97.53213767215372 52.878553301325745 L -97.54074288325327 48.31918900854121 L -96.96801254546942 40.97181478467989 L -96.29170496109478 36.7428748545449 L -95.3823373673227 32.66848094726052 L -94.25469208960945 28.763615918664186 L -92.92458753300187 25.042033789115997 L -91.40878011405184 21.516186093345198 L -89.72486091616264 18.197155945887964 L -87.89114767176008 15.094600200092875 L -85.24598039725818 11.308519716227208 L -82.41443012710276 7.936836192962373 L -79.44377670423158 4.98981741702065 L -76.38186810324707 2.472738916001139 L -73.27660645481387 0.3858601703059295 L -70.17543459158237 -1.2755467810020378 L -67.12482842994835 -2.521116673248183 L -63.45107401521926 -3.515700809492454 L -60.01003536652346 -3.921565807271282 L -56.87909893590467 -3.787371835459229 L -54.128233173540764 -3.171376733447677 L -51.818825417536935 -2.14039183381156 L -49.70244699644679 -0.46031358038423115 L -48.933005369939295 0.5204594464112903 L -48.36525110233395 1.570755211602813 L -48.00420830978918 2.6717540575288115 L -47.853368854809446 3.8043013841567617 L -47.98235751095889 5.3299454529442425 L -48.32682452364197 6.460634063259916 L -48.88186521242054 7.558149751521427 L -49.64420566098106 8.60328187004923 L -51.77002773844562 10.461219010864511 L -54.64790669931009 11.88906433091178 L -58.198696328268944 12.751910951179127 L -61.60011744691648 12.951546955751372 L -65.33184882216221 12.613305950410282 L -69.31821595085601 11.685301839822944 L -73.47696138621188 10.125874353164013 L -76.86942095817722 8.402720452357157 L -80.26968552621474 6.245242007221092 L -83.6300991772024 3.647967163829284 L -86.9024575499484 0.6104126425385328 L -90.03852102435916 -2.862878092041891 L -92.99052942213146 -6.762349048460154 L -95.05556313137583 -9.958092091977159 L -97.57381430577325 -14.565572795673107 L -99.26217467760677 -18.268554730430466 L -100.75914000483512 -22.17113462127591 L -102.04790266943145 -26.260636525119892 L -103.11260445415739 -30.523084615441775 L -103.93843422857091 -34.94327753676112 L -104.5117197371866 -39.5048700168792 L -104.82001295357246 -44.19046126819814 L -104.85216850138207 -48.98168966999582 L -104.59841468337719 -53.85933318694101 L -103.51817368778292 -62.12621920093654 L -102.46532051350553 -67.13493876619209 L -101.10341342165523 -72.15398423167557 L -99.42979164698833 -77.16158086891147 L -98.14028746848453 -80.4827653398946 L -95.14486982798974 -87.05438903701449 L -91.5986390151494 -93.48815251312176 L -87.51137929455972 -99.73229496744504 L -82.89795843173232 -105.73606675383195 L -77.77820770402295 -111.45023569684699 L -72.17675133070465 -116.82757894206938 L -66.1227870384141 -121.82335529188728 L -59.649819981022716 -126.39575317768333 L -52.79535271299152 -130.50630966885365 L -45.600534367505446 -134.12029621603017 L -38.10977261049818 -137.20706716710575 L -30.370312324821146 -139.74036747665716 L -22.431785321156575 -141.69859644828867 L -14.34573567051474 -143.06502480083128 L -6.165125504008747 -143.8279628286908 L -1.3494274467873991e-12 -144 L 6.1651255040080954 -143.82796282869083 L 14.345735670514095 -143.06502480083137 L 22.4317853211566 -141.6985964482886 L 30.370312324820528 -139.74036747665733 L 38.10977261049758 -137.20706716710595 L 45.60053436750544 -134.12029621603006 L 52.795352712991495 -130.5063096688535 L 59.64981998102218 -126.39575317768367 L 66.12278703841402 -121.82335529188714 L 72.17675133070456 -116.82757894206921 L 77.77820770402253 -111.45023569684741 L 82.89795843173195 -105.73606675383239 L 87.51137929455939 -99.7322949674455 L 91.5986390151491 -93.48815251312224 L 95.1448698279895 -87.05438903701499 L 98.1402874684843 -80.4827653398951 L 99.42979164698808 -77.1615808689113 L 101.10341342165496 -72.15398423167541 L 102.46532051350525 -67.13493876619194 L 103.51817368778282 -62.12621920093705 L 104.59841468337714 -53.859333186941534 L 104.85216850138173 -48.98168966999574 L 104.82001295357247 -44.19046126819865 L 104.51171973718621 -39.504870016879146 L 103.93843422857097 -34.943277536761606 L 103.11260445415701 -30.523084615441782 L 102.04790266943158 -26.260636525120333 L 100.7591400048347 -22.17113462127596 L 99.26217467760691 -18.26855473043087 L 97.57381430577283 -14.565572795673189 L 95.05556313137541 -9.958092091977283 L 92.99052942213103 -6.762349048460299 L 90.03852102435873 -2.862878092042065 L 86.90245754994865 0.6104126425382734 L 83.63009917720265 3.647967163829053 L 80.26968552621432 6.245242007220805 L 76.86942095817749 8.402720452356997 L 73.4769613862115 10.125874353163661 L 69.31821595085566 11.685301839822554 L 65.33184882216189 12.613305950409856 L 61.600117446916194 12.95154695575092 L 58.198696328269136 12.751910951179148 L 54.647906699310255 11.889064330911829 L 51.77002773844575 10.461219010864587 L 49.64420566098114 8.60328187004933 L 48.881865212420614 7.558149751521532 L 48.32682452364201 6.460634063260026 L 47.98235751095887 5.329945452943673 L 47.853368854809474 3.8043013841561923 L 48.004208309789156 2.6717540575289207 L 48.36525110233404 1.570755211602253 L 48.933005369939224 0.5204594464113909 L 49.702446996446945 -0.46031358038477727 L 51.81882541753714 -2.1403918338120778 L 54.128233173540615 -3.1713767334476333 L 56.87909893590448 -3.787371835459215 L 60.01003536652327 -3.9215658072712962 L 63.451074015219035 -3.5157008094925044 L 67.12482842994874 -2.5211166732485464 L 70.17543459158213 -1.27554678100216 L 73.27660645481363 0.3858601703057784 L 76.38186810324751 2.4727389160008593 L 79.44377670423134 4.989817417020428 L 82.41443012710255 7.936836192962113 L 85.24598039725797 11.308519716226934 L 87.89114767175988 15.094600200092552 L 89.72486091616246 18.19715594588763 L 91.40878011405168 21.51618609334482 L 92.92458753300173 25.0420337891156 L 94.25469208960934 28.76361591866378 L 95.38233736732259 32.668480947260086 L 96.2917049610947 36.74287485454446 L 96.96801254546936 40.97181478467943 L 97.54074288325324 48.31918900854073 L 97.53213767215374 52.87855330132525 L 97.2465545104603 57.52839291647805 L 96.13173803435868 65.4257887302221 L 94.1918412251659 73.42544505493794 L 91.40701105640602 81.42902591509869 L 89.32689019059728 86.19123526848583 L 87.76971317787303 89.3358757736526 L 84.24903871733342 95.52354735820113 L 80.19410346215705 101.53278115662965 L 75.61836200692305 107.31282171502615 L 70.54026261224223 112.81427967277895 L 64.98309209582774 117.98962823219776 L 58.974771283538296 122.79368166612137 L 52.547603084747955 127.18405094711257 L 45.73797574402245 131.12157181606295 L 38.586024282505356 134.5707008904376 L 31.135253572863075 137.49987574012928 L 23.432126886590012 139.88183522859757 L 15.525624108022015 141.6938968247589 L 7.466774121697526 142.9181880328761 L -0.6918338542882109 143.54182955881862 L -6.844010495868812 143.61052505120045 L -15.047767706612413 143.16750497003846 L -21.1715503073704 142.4350355641535 L -29.25459781977813 140.92958209145297 L -37.19516981769001 138.8296624812372 L -44.94128573045934 136.15084290322187 L -52.44273845956939 132.91361648416068 L -59.65157559058586 129.14320082875233 L -66.5225576996258 124.86928811840427 L -71.4286240776964 121.35366187443607 L -77.60918410627207 116.2824595074196 L -83.3448695958275 110.80993158626656 L -88.60417556415683 104.97959573273708 L -93.36003929830338 98.83770100254331 L -97.59008613164292 92.43276822703149 L -101.27682752861979 85.81510809217406 L -104.4078094758301 79.0363218980933 L -105.76240039265288 75.60285914127662 L -107.52933793697245 70.41608627816714 L -108.97838267449362 65.20515401140949 L -110.11108306989853 59.99214386240458 L -110.9306053988681 54.798891741756215 L -111.44170872095322 49.64686710299423 L -111.65071077100072 44.5570543934912 L -111.56544497134838 39.54983748579859 L -111.19520881836881 34.644887755232986 L -110.55070394683968 29.861056448306574 L -109.64396822375525 25.21627196160776 L -108.0502292428202 19.268586909400554 L -106.58536194946157 15.012066651142582 L -104.90701903677217 10.946487688793404 L -103.03206863766808 7.084737635546872 L -100.25704842212181 2.2725164619067817 L -97.20814336980142 -2.1336707964613963 L -93.93129090158722 -6.11517989898041 L -90.4738344628916 -9.658232609662166 L -86.88401920435383 -12.75402546095365 L -83.21047954084875 -15.39878670613547 L -78.57466349323627 -18.072877751656296 L -74.88908145205491 -19.715032454929414 L -70.38697335069133 -21.16656716129174 L -66.08196369454959 -21.982747305465498 L -61.28949468005716 -22.187772702761404 L -57.69275623411144 -21.77902503262807 L -53.948487100616866 -20.691234588903438 L -50.91418080356462 -19.073004662914638 L -49.686121335476145 -18.10835946918162 L -48.363918872221646 -16.702063831787967 L -47.614965325190994 -15.58180530138461 L -46.945764562477564 -14.037384080275146 L -46.69251504347875 -12.866227126899807 L -46.68524925777024 -11.324568540799786 L -46.92446333248296 -10.208274888879744 L -47.36884002544653 -9.147366090605622 L -48.549126105845595 -7.552559347332992 L -49.5085437534581 -6.728839686340689 L -50.64496499603038 -6.025887863900498 L -52.902074821664755 -5.1661764989462675 L -55.56163775925197 -4.755489616604212 L -58.556455166518504 -4.854613033022215 L -61.81159406115375 -5.515013417303781 L -64.54861191840483 -6.475516603571219 L -67.35612673518074 -7.837887779470807 L -70.18841178032528 -9.613474846719082 L -72.99860945984165 -11.808766594113061 L -75.73923561901576 -14.425295651243156 L -78.36269134049301 -17.459593274636386 L -80.22496701530508 -20.00457249488237 L -82.5303287041266 -23.746628713814356 L -84.10132563062092 -26.80541837703228 L -85.51630179681192 -30.070635244157895 L -86.75746858166649 -33.531904355193426 L -87.80782436271383 -37.177460289352155 L -88.65125980370838 -40.99420968593346 L -89.2726581158862 -44.96780164184028 L -89.65798970682272 -49.08270558134735 L -89.7412713747992 -56.209293068047856 L -89.0820305055883 -63.59885769011569 L -87.63928538684571 -71.16198421198357 L -85.38342413941712 -78.80418637147037 L -82.29678174120798 -86.42737540853315 L -79.22530252480384 -92.44495909925432 L -76.57200304655021 -96.877060867079 L -72.5740635587456 -102.63722526331966 L -69.23701949037334 -106.81763374452643 L -64.34933189414605 -112.16537874876211 L -60.36616621292283 -115.98019231737459 L -54.65201980894364 -120.76801223526883 L -50.079747301381495 -124.11069139452712 L -43.627353319337324 -128.20314277154964 L -38.540840127730114 -130.9778149896984 L -33.26084648476339 -133.4829938020131 L -27.80515012466867 -135.704771814298 L -20.29017285020409 -138.20471557256485 L -14.499107068314967 -139.7186173032842 L -8.59829768446763 -140.91259349307748 L -2.6091343342258444 -141.77888175337918 L 5.4758927678381095 -142.41371357261346 L 11.585229797728491 -142.49406530286225 L 17.7084013419316 -142.232342783913 L 23.822551081572392 -141.6277771541641 L 31.92120531355568 -140.29015244972084 L 37.92558382822866 -138.89193256563595 L 43.8453621459365 -137.16024092339552 L 49.65852304761843 -135.10141431338138 L 55.343566288587006 -132.72336531539895 L 60.879624884142494 -130.03553918287434 L 66.2465777988749 -127.04886205932023 L 73.10629743491593 -122.62328309227055 L 78.00541460342627 -118.98962961753776 L 82.67509813264587 -115.10340931087902 L 87.09964569841574 -110.98117042272398 L 92.59295016823253 -105.14831028184065 L 96.39167230671706 -100.54555760813662 L 99.90243518242497 -95.76913488815393 L 103.11550504093347 -90.83950264128417 L 106.92257190730612 -84.06483027055054 L 109.4118568240475 -78.86050013467118 L 112.23436310745062 -71.79885527492974 L 113.97549785145965 -66.43959408198029 L 115.79476293548899 -59.25235383158246 L 116.78415021668813 -53.85959157721652 L 117.60923469341961 -46.70791596785794 L 117.88080182053491 -39.64717241535204 L 117.61562067114119 -32.726787466697395 L 117.07724105919547 -27.65716266759575 L 115.92711423377851 -21.094717934727747 L 114.30985099114558 -14.796287594663845 L 112.2584695416806 -8.801089713039957 L 109.80955478063314 -3.1446630352853897 L 106.25021325503607 3.4018528296319777 L 102.21559784947188 9.318053226447127 L 97.7945586021679 14.563132897202452 L 93.07976807973662 19.108077281982965 L 88.16618924515004 22.936023953665643 L 83.14951110975957 26.042426832441745 L 80.12955348003207 27.56263998255218 L 77.12679461522812 28.82941537917301 L 74.16092925795766 29.84805173475704 L 71.25110652517762 30.62534186506118 L 68.41581755139438 31.169524604856512 L 64.78188579810474 31.549323877669366 L 62.187920979878726 31.589312719181525 L 58.9341544674892 31.34010898087577 L 55.945276249389124 30.775624252645542 L 53.251283350484925 29.932104704704997 L 50.87807312574657 28.84862500568253 L 48.84717870856954 27.56664872508993 L 47.17555071346436 26.1295642249506 L 45.60935478376523 24.18347937013952 L 44.783247042966224 22.562696370302138 L 44.28605512724386 20.532644224397448 L 44.37518400613167 18.581755743506985 L 45.0300993440666 16.797688882958134 L 45.94021844478316 15.547211062321995 L 46.83432581354267 14.73943176028391 L 48.288224972838364 13.866817329085944 L 49.55921093272041 13.385432100277182 L 51.468857995167646 13.001064902054797 L 53.04312668101265 12.922415267801252 L 56.4870186003198 13.352259642892133 L 60.208455918573016 14.624907461892501 L 64.0587996418294 16.792293017872677 L 67.88225099390893 19.882250993908624 L 70.9330977026436 23.164793317893764 L 73.7627139145997 27.07872887239675 L 75.80640324315527 30.648887038219673 L 78.01268619612328 35.63144034267468 L 79.44716325341246 40.00551434601709 L 80.76169684139788 45.9125159614248 L 81.38589487365842 50.95010483823211 L 81.59439577926565 56.22552809958155 L 81.35817376468393 61.69872511021452 L 80.65230255733036 67.32665088555835 L 79.80216558044035 71.62178691341379 L 78.22777248740496 77.40947547499013 L 76.70959439243003 81.76908316533832 L 74.22911897819316 87.56682603041325 L 72.024638559283 91.87602365303422 L 69.52547265262886 96.12770437251115 L 66.73363049947946 100.30027277048906 L 63.65274247433441 104.37226435630163 L 60.28804764261742 108.32246813939122 L 56.64637203789439 112.1300479579572 L 52.73609777865342 115.7746618615287 L 48.56712319772975 119.23657885633365 L 44.15081420954142 122.49679233743153 L 39.499947191102336 125.53712955064509 L 34.62864370192568 128.34035645018446 L 29.552297415277124 130.89027734439145 L 26.062297739011708 132.44201101343157 L 18.85192216163749 135.1711669254395 L 13.264283098056103 136.87574853173288 L 9.464358589791969 137.84280822732177 L 1.712052969722778 139.3574032893718 L -4.211007425204597 140.11651314967654 L -8.199534945972706 140.43928063575868 L -16.24265513864011 140.63790240390523 L -22.306573363792847 140.39159792049944 L -26.351610446614828 140.03799433247585 L -34.417066100471345 138.87578792095096 L -40.41800076598499 137.60755825191418 L -44.383084315601955 136.57480577895387 L -52.19806503514818 134.06601814203273 L -57.93280532158593 131.80382309469502 L -61.68374053325825 130.1187197982116 L -68.98438166608719 126.33624382038793 L -75.97698450138293 122.02571886712398 L -79.34350104902252 119.6816091692105 L -84.21585114841972 115.94092764727196 L -90.35455785005635 110.55794030238485 L -93.25990623518057 107.70786123435093 L -97.40060371156179 103.24902641860842 L -101.26853960331327 98.58611090511039 L -104.85151645146922 93.73837125802667 L -108.13878177512257 88.72587051661705 L -112.04603742724754 81.82220634422451 L -114.61000918947262 76.50697866000615 L -117.52939820203868 69.27838480179938 L -119.33972814283032 63.779586181349465 L -121.24451283356207 56.38737693465858 L -122.29154984792663 50.82695790449416 L -123.18277613205765 43.43374350609708 L -123.4776935444682 37.932799253290455 L -123.38393028843697 30.69762617020789 L -122.95820923006889 25.372784054061633 L -121.93443714471795 18.44640093297334 L -120.83872291967941 13.4063583964111 L -118.96440877710394 6.926755750552289 L -116.0044343230227 -0.7311843015248201 L -112.42688083149108 -7.834289218562311 L -108.31181211457233 -14.323263822311432 L -103.74552047987582 -20.149623597124904 L -98.81910003292289 -25.276368366563702 L -95.72956367697596 -28.00567997591772 L -92.56507711960873 -30.470591847176127 L -89.34649302238714 -32.669414652868134 L -86.094646962586 -34.60206301548521 L -82.83023514743455 -36.270047324330235 L -79.57369316403943 -37.67645626482362 L -76.34507646880171 -38.82593016752199 L -72.11741203452246 -39.9697387569686 L -69.02894189733725 -40.54617460798222 L -65.05482400690494 -40.95759445678351 L -61.28173740994985 -40.98507648532667 L -57.746697168972496 -40.658721590267646 L -54.48320654224409 -40.012192820968444 L -51.520915360463164 -39.082331638480724 L -48.88531939078859 -37.908741574467314 L -46.081924044220415 -36.16305723429419 L -43.852580977689826 -34.18799034765857 L -42.21653346710122 -32.072367495193305 L -41.18100591079888 -29.906497269930256 L -40.84641233924026 -28.620442274452795 L -40.72334982364819 -27.368073101336517 L -40.974961609653505 -25.406858774639414 L -41.3891088381791 -24.33558321106938 L -41.990444683968896 -23.364887392010708 L -43.0660047246107 -22.255872025696174 L -44.06312147021205 -21.58341892381055 L -45.621986343673754 -20.926938594809197 L -46.944709614794604 -20.631929574369853 L -48.88375174389833 -20.52440669462887 L -50.44818188906547 -20.67167996100127 L -53.7841664186238 -21.589737162186967 L -57.27259292438283 -23.381557677304745 L -60.18466972200081 -25.564432505029142 L -63.54837123627645 -29.017572111771354 L -66.13498611731744 -32.57900314240066 L -68.4288724987337 -36.73863168921903 L -69.99487304291554 -40.47433722786959 L -71.5467403359766 -45.61656407647732 L -72.41561483193104 -50.07461162059409 L -72.91385712120146 -54.80390264206129 L -73.00863393865549 -59.76833571064291 L -72.67084516780672 -64.92841236525987 L -71.87545791839459 -70.24162986675336 L -70.60179917451258 -75.66290610763761 L -69.32284615174285 -79.7714444658472 L -67.7607203563674 -83.89369661638483 L -65.9119723515769 -88.00870848408505 L -62.998133899615816 -93.44739025903434 L -60.47614673390959 -97.46263865142541 L -57.667606239272914 -101.39941518188363 L -54.57603612230822 -105.2364064373761 L -51.20656580028642 -108.95254300629692 L -47.56590943164506 -112.52712082301218 L -43.66233577701793 -115.93992062408941 L -39.50562905948119 -119.17132482411269 L -35.10704104494061 -122.20243113365856 L -30.47923461439612 -125.01516226088147 L -25.636219149221432 -127.59237106057861 L -22.29547891061661 -129.17166022722193 L -15.366889138963193 -131.9768780078093 L -8.143549107307026 -134.28373418340578 L -0.6699012308629312 -136.0631756389138 L 7.006830458146857 -137.29054010852207 L 14.83709057416675 -137.94581797749066 L 22.76946695271765 -138.01386740986635 L 30.751184689895 -137.48458057476873 L 36.73760950704907 -136.69243512108352 L 44.67640730281334 -135.10901433760966 L 52.51657003830479 -132.92717560176197 L 60.20479736621947 -130.1562928944403 L 67.6888802032958 -126.81085811469626 L 74.918205734117 -122.91034889738705 L 81.84424658653116 -118.47904620135542 L 86.81198200290247 -114.8244287706715 L 93.09843750877306 -109.53626201590093 L 97.53825308828387 -105.27841270358061 L 103.06142725988782 -99.24394752721201 L 108.10065536363781 -92.84016124363788 L 112.62646246696916 -86.11246538859366 L 116.61393192308729 -79.10883794686087 L 120.04293563003748 -71.87935503869429 L 122.89831587759318 -64.47570189687684 L 125.17001693951924 -56.95066813996146 L 126.85316508539049 -49.35763250793735 L 127.94809621634639 -41.75004233416539 L 128.46033086757257 -34.180893080624735 L 128.40049686129095 -26.702213261921646 L 127.78420043208781 -19.364560027152148 L 126.63184717596391 -12.216530557990534 L 124.96841469008805 -5.304294277675397 L 123.95403303065197 -1.9502532666225396 L 122.21540362022898 2.9387598251718354 L 118.77570073724233 10.66871915622238 L 114.72375236666633 17.817473205593746 L 110.14138356314547 24.32704285966591 L 107.17370011465867 27.905937985348775 L 104.06642657521945 31.229405082093155 L 98.63274129728542 36.183617445576715 L 95.25339780076928 38.79784104155771 L 91.81032973936009 41.14009554171982 L 88.32456226513804 43.20960546939448 L 84.81703255221936 45.007200051201224 L 81.30846791398305 46.53529961844227 L 77.81926536724386 47.79789277398612 L 74.36937334182116 48.80050446305601 L 69.8640756082489 49.74524789196898 L 65.50707535329784 50.261063000778925 L 61.33981596554261 50.37288057888039 L 57.40073252673525 50.1096550411518 L 53.72486130396461 49.504029435772274 L 50.34348553597688 48.59196266237663 L 47.283821154810234 47.41232278568074 L 43.94606798457017 45.6246768163857 L 41.18100591079909 43.56872174416692 L 39.01158942717233 41.33291939117724 L 37.44879369096907 39.007633275314845 L 36.491483483776236 36.68357109554705 L 36.122564947119486 34.022138283125855 L 36.24455834203696 32.787277553549295 L 36.56087800791862 31.640306061407447 L 37.062274969542166 30.598365525420096 L 37.73815515214639 29.677791045453336 L 38.890051763881786 28.66567057493023 L 39.92481906881845 28.086526661391982 L 41.089953650460316 27.676108645714674 L 42.36989745657071 27.446153974338753 L 45.20754440897983 27.5681181398969 L 48.2970074474146 28.51957330227454 L 51.48814338335491 30.34444220691837 L 54.11274136797313 32.547172228337686 L 56.60840776855591 35.36842042896385 L 58.88445769398432 38.79405996788404 L 60.85242416123498 42.79800533074124 L 62.147877317315576 46.39259736602405 L 63.1507849475828 50.308991607925556 L 63.82269062776101 54.518487350164634 L 64.1281587679724 58.98837551708775 L 64.03517443799977 63.68226267106778 L 63.515508382243 68.56043419950649 L 62.83107808418141 72.31444847920986 L 61.509322348750494 77.41100565276274 L 60.202220981247685 81.27627886071332 L 58.61863642212742 85.1557288022745 L 56.75501897540171 89.02859685883715 L 54.609401449570115 92.87382872966282 L 52.18141931541835 96.67019553592984 L 49.472321594456474 100.39641616631026 L 46.4849724088445 104.03128015536292 L 43.22384317780727 107.55377038261798 L 39.69499549974775 110.94318488123726 L 33.24005704696988 116.24168708078776 L 29.03870492852791 119.17870669188574 L 24.60494241035111 121.91135520273814 L 19.95175935090407 124.42194646188635 L 16.734753611279245 125.96400429883006 L 11.74830056502033 128.06783663563812 L 8.323770298010267 129.32443865581538 L 1.2573296023551608 131.46892555556352 L -6.06245107700603 133.0972372660841 L -13.589268059746216 134.1836975521865 L -21.274356267750505 134.70720224901015 L -29.06695657602262 134.65144876891236 L -36.91480415069512 134.00511735503937 L -44.7646327849641 132.76200219795666 L -52.56269007860111 130.9210910468141 L -60.25525819403292 128.48659247573502 L -67.7891748641362 125.46791050398431 L -75.11234932331082 121.87956680950847 L -82.17426788510454 117.74107131397193 L -88.92648399532015 113.07674244805432 L -95.32308774878535 107.91547892282163 L -99.86122148437502 103.73823937391708 L -104.15823056291205 99.31556622328324 L -109.48552052725624 93.06586330300814 L -114.32262141967902 86.45209681447984 L -118.64006634561184 79.51978526378507 L -122.41294042972635 72.31703198619938 L -125.62111367005313 64.8940579568281 L -128.24942550043755 57.30271359829098 L -130.2878191876693 49.59597457953236 L -131.73142470514333 41.827426763982864 L -132.58058925451823 34.05074557599966 L -132.84085514483405 26.31917511135143 L -132.52288527960192 18.685012319162173 L -131.64233704076847 11.199101529890475 L -130.21968588871164 3.910344496419051 L -128.28000051406968 -3.134769044976248 L -125.85267187489225 -9.892605499200872 L -124.46643137252804 -13.151042928409375 L -122.18399727813534 -17.874769423434152 L -119.67233429416959 -22.388645059360243 L -116.94862019544738 -26.679079256906203 L -111.98733216945791 -33.300688341132606 L -108.78862812246459 -36.939369163097986 L -105.44772880470782 -40.316855408530806 L -101.98506704339904 -43.4263698288052 L -98.42144605693403 -46.262712208506365 L -94.77791834871108 -48.822280722606955 L -91.07566338601796 -51.103084016901924 L -87.33586477332982 -53.104743947678266 L -83.57958763211644 -54.828488970800244 L -79.82765689793807 -56.27713822453866 L -76.1005372401231 -57.45507640447612 L -72.4182152997016 -58.36821958215631 L -67.61155898014418 -59.186846276480885 L -62.96291457535131 -59.569552240842704 L -58.51358763051711 -59.54211377316779 L -54.30179698582626 -59.13428477246742 L -50.36229030058572 -58.37945428366121 L -46.7259965877844 -57.31426693610527 L -42.64744153960079 -55.60673536063493 L -39.126862250466594 -53.558419256043024 L -36.19555906562067 -51.256020323314495 L -33.873030522239816 -48.78917177463346 L -31.899193695038424 -45.74004496707875 L -30.801881369654556 -42.74183494560146 L -30.546192009708005 -39.94698112486506 L -30.71651656446539 -38.67136743086004 L -31.073473246183486 -37.49994369287114 L -31.60627142490458 -36.44893576453444 L -32.56919346728284 -35.26119740488227 L -33.463371155023594 -34.548861092152826 L -34.48873706449457 -34.00379063079008 L -35.629613497436374 -33.6375326710512 L -36.86943688136407 -33.460339537616285 L -39.57586260224858 -33.70730342658303 L -41.974796966364735 -34.556471657303476 L -44.409949945658454 -36.010853362283626 L -46.79080914412399 -38.07698169263856 L -49.026478894529944 -40.74927909846712 L -51.02724290559486 -44.01009440757789 L -52.40013372610264 -47.023050644223225 L -53.524271547933864 -50.373623436551036 L -54.3592068349624 -54.03695145113314 L -54.867150143320075 -57.98393774011011 L -55.01339701938106 -62.181538988368736 L -54.76672145961397 -66.59309666691887 L -54.09973383477803 -71.17870669188531 L -53.30952199436083 -74.70651682992134 L -52.26154659202272 -78.28929418155039 L -50.94908927326141 -81.9074431441808 L -49.36693863200539 -85.5408277368287 L -47.511429210284774 -89.16888776288326 L -45.380471547303465 -92.77075766245453 L -42.97357309767821 -96.32538736553842 L -40.29184989153695 -99.8116644453643 L -37.33802886284006 -103.2085368637167 L -34.11644082640526 -106.49513559633803 L -30.63300413830466 -109.65089642713168 L -24.266400012708402 -114.5652903332882 L -17.23781436293173 -118.97087907502163 L -9.602384056147379 -122.78366104267727 L -3.1008209226163577 -125.35506710795303 L 3.709413799584847 -127.4620045760258 L 10.786850269179851 -129.07260469698016 L 18.086893607321002 -130.15911715170063 L 25.562248843763932 -130.69820955099513 L 33.163374177002915 -130.67122261357372 L 40.838957919898526 -130.0643783758091 L 48.536414257780756 -128.8689392686873 L 56.202392751314264 -127.08131640213654 L 63.78329637421146 -124.70312591884833 L 71.22580278700737 -121.7411928133894 L 78.47738351403852 -118.2075021523 L 85.48681571138334 -114.11909817152986 L 92.20468128900153 -109.49793226326352 L 98.58384827952298 -104.37066138958403 L 103.11913538714778 -100.21163400513589 L 108.80066855498316 -94.2760622846505 L 112.76658403381163 -89.5526181857599 L 117.63257495975228 -82.92547688065535 L 121.98766987338979 -75.96271993601911 L 125.8046760907618 -68.7113010377055 L 129.06106909894072 -61.220546079347166 L 131.7392041520832 -53.541675893285685 L 133.82647868392786 -45.72731015382171 L 134.99950568386433 -39.80978686303649 L 136.03798602195275 -31.887301679552813 L 136.4776725381808 -23.977047695525815 L 136.32543855262855 -16.13229859514979 L 135.5932638772549 -8.405272400577145 L 134.29809870540336 -0.8466283298413171 L 132.461677516372 6.49501986364256 L 130.11028492630535 13.573569099082984 L 128.75086451535807 17.000569553876606 L 126.49379515832335 21.986345464877058 L 123.9887532890169 26.772115089999538 L 121.25199447824991 31.342863408085766 L 118.30078383866561 35.68486297779264 L 115.15329497137549 39.78574476966693 L 111.8285038750769 43.63456110071615 L 108.34607843320582 47.22184031261718 L 104.72626412018533 50.53963288259417 L 100.98976658955667 53.58154870566617 L 97.15763182471439 56.342785338168206 L 91.93611981785035 59.58253137936505 L 87.96367604381622 61.6792161498517 L 83.96663871541799 63.49085482652478 L 79.96611551265605 65.01962524275193 L 74.66254725494262 66.62469027967929 L 69.43775725418587 67.74692307123881 L 64.33795380641678 68.40423266104179 L 59.40703360651377 68.61903416343364 L 54.686140021897415 68.41798226444226 L 50.213250967849234 67.83166143245481 L 45.02298894064341 66.60933323329769 L 41.228063377745976 65.28589684572566 L 36.972467937200086 63.26647260782979 L 33.29545411008562 60.920301139147625 L 29.68520620424233 57.79807465817567 L 27.36245023807051 55.04710833754517 L 25.40019075455673 51.70391929537209 L 24.31762377063409 48.4621133569769 L 24.09311362557349 46.926471661937526 L 24.105245366186683 45.007907448611135 L 24.3357048354284 43.68787447510232 L 24.91723378720199 42.11699601068149 L 25.54293946754144 41.100158509233424 L 26.603757295077916 39.98562389025222 L 27.549825906764298 39.346730302939356 L 28.607046918514083 38.88896781148558 L 30.569760158042246 38.55400150220389 L 31.838676948229427 38.62240750941771 L 33.1534100787779 38.90022182582698 L 35.39457926882439 39.83950430265244 L 37.62018508745297 41.38194329978857 L 39.7396187030557 43.52569910520242 L 41.663029472873546 46.256844468454844 L 43.00167774829488 48.84771476398854 L 44.11564627088099 51.779646584164446 L 44.96385828899487 55.029539032498775 L 45.50774511847577 58.569977976766964 L 45.711679851729265 62.36951109780251 L 45.543380994142616 66.39296581587976 L 45.15554464358594 69.53443953921912 L 44.26952095647007 73.85522956444105 L 43.316671940324035 77.17116859835116 L 42.1084111494281 80.53045578014905 L 40.63889864584166 83.91333531516051 L 38.903820840810575 87.29957848879519 L 36.90042429804237 90.66860136528695 L 34.62754047789053 93.99958477592732 L 32.085601272993 97.27159590070225 L 27.25739809417044 102.53712344814984 L 21.707451075959966 107.48496323990128 L 15.467221883329096 112.02188339073157 L 8.579928194921564 116.05875392444023 L 1.0999571787434095 119.5120116114437 L -5.267535517501528 121.80266369042741 L -10.242515755261298 123.22176297457872 L -17.108993405150898 124.68951589374153 L -22.409931923873586 125.45634227216287 L -29.642389553654123 126.01345256541771 L -35.163795521663175 126.07082459576073 L -42.6150113722509 125.65322507302676 L -48.242318973710844 124.9626155806845 L -55.75519089154586 123.53210675871696 L -61.368146389146716 122.07499328872044 L -68.78035056976717 119.62063810606415 L -74.25658729235072 117.39923655459512 L -81.4054137222968 113.93791372740479 L -86.62410317088886 110.9752714856379 L -91.6965784854904 107.7070707110762 L -96.60215308059026 104.1428243414482 L -101.3208580250539 100.2935365827708 L -104.35335507769427 97.57507368815793 L -110.1220266731481 91.79095883814458 L -114.16910674521549 87.16657856575677 L -116.72507803531356 83.95628392705764 L -121.47610683220495 77.25313671833763 L -125.71918478228119 70.20974032879714 L -127.64123233621356 66.57482611035648 L -130.26609972423327 60.99785783182676 L -133.26997116639532 53.362096184229536 L -134.55431552813906 49.472993196101235 L -136.20386433136838 43.568721744166 L -137.87969205072068 35.599502370411216 L -138.49140804184924 31.588506457343957 L -139.12534864574374 25.558031053012563 L -139.44228960017344 17.526738945714218 L -139.37583460328042 13.530199425389341 L -138.99822514034426 7.57793920016894 L -137.98468670164073 -0.24478817841063938 L -137.26402689181634 -4.0931107439876575 L -135.92283414920928 -9.769369514808236 L -133.66472089205342 -17.126803870067413 L -132.34195910307787 -20.702234021634467 L -130.1263906668102 -25.920930105581565 L -127.645667477758 -30.950843995361843 L -124.91501185999765 -35.77563508542673 L -121.95075923786823 -40.38016957589694 L -118.77026308541394 -44.750599412466414 L -115.39179420407825 -48.87443376616643 L -111.83443491272168 -52.74060264456969 L -108.11796876327314 -56.339512271719975 L -104.26276642118479 -59.66309192173535 L -100.28966837187849 -62.704831940592676 L -96.21986513267109 -65.45981274166859 L -92.0747756639154 -67.92472461292705 L -86.46808087641075 -70.75736927716376 L -82.23098315261079 -72.54168570313976 L -77.99006890591268 -74.03659259995558 L -73.76632968501978 -75.24575785208967 L -68.19687248016736 -76.42274374846062 L -62.741675883215336 -77.11777908294542 L -57.445787202824924 -77.35202570317907 L -52.35163077628985 -77.15098626669996 L -46.32729090940174 -76.3329366121963 L -41.82574452690372 -75.26614454389093 L -36.64731720168911 -73.47846927964648 L -32.89560109423555 -71.73431224904452 L -28.72985289101221 -69.23220338655432 L -25.175049616193807 -66.45461304668218 L -21.742481032320466 -62.88569373140202 L -19.228087672151364 -59.209664156354975 L -17.61753923754834 -55.58420284077192 L -16.871877803184002 -52.161920667958725 L -16.80473316586441 -50.57235695438997 L -17.010479616326773 -48.61727362818351 L -17.371442175109973 -47.29478418813355 L -18.103864639432114 -45.75118963556289 L -18.82320778286225 -44.77568913989694 L -19.97990759200826 -43.740814620333566 L -21.68829726841054 -42.908740913601825 L -23.612499148883124 -42.62555713363707 L -25.666956715070352 -42.91927584403164 L -27.34481594450264 -43.58099323743693 L -29.409318408443003 -44.946227040242505 L -30.978310044656578 -46.46555097466446 L -32.76134123836233 -48.885032932459694 L -33.990969106153265 -51.22013118472932 L -34.99930014149494 -53.8900477581723 L -35.745765299911696 -56.87124830838306 L -36.19237321185468 -60.13593568742206 L -36.309377522356755 -62.75151423610263 L -36.14908515514364 -66.43362791938266 L -35.77589183539725 -69.3204662062858 L -35.17388023885727 -72.29571879355211 L -34.333713294770696 -75.34140822496917 L -33.24745810410568 -78.43881315717607 L -31.90864070573248 -81.56857762609634 L -29.103231132315866 -86.80258687736507 L -25.569670325586905 -91.97682192007895 L -21.306746661329633 -96.99541958974419 L -16.325589448439025 -101.76250009729723 L -10.649599237740823 -106.18373856908947 L -4.314179321665911 -110.16791631154558 L 1.1977724493319217 -112.98218309480576 L 7.072836584558964 -115.41956800516672 L 13.277725892422389 -117.441376479886 L 19.775264429906024 -119.01225308866933 L 24.81609951969368 -119.87530661640174 L 31.725894556876742 -120.5833663510927 L 38.8090448635284 -120.76346767684988 L 46.0172011594868 -120.39586237876145 L 51.475167803262 -119.7515447108351 L 58.780222159563905 -118.39245534965019 L 64.25113624214293 -116.99476405899662 L 71.49268815443044 -114.62534679054956 L 76.85506210531187 -112.4704909469817 L 83.8708175340391 -109.09958465293003 L 89.00356868116715 -106.2046076196754 L 94.00171853965551 -103.00275796960804 L 98.84424431966937 -99.50250879726275 L 105.02373164847715 -94.38882734870069 L 109.42515939265897 -90.23373476278677 L 113.60610251743611 -85.81920009734242 L 117.54908268774102 -81.1598914395877 L 122.40807027111262 -74.59439489062181 L 125.73413107589661 -69.42782842322008 L 128.77234556351254 -64.07389152767709 L 131.5105801537946 -58.55200338084535 L 133.93813434118232 -52.88241737839331 L 136.04579918476236 -47.086111775022594 L 137.8259073631229 -41.18467621239019 L 139.67956831292514 -33.19078631810406 L 140.67451160453498 -27.130560289381414 L 141.32793761392998 -21.040064492069586 L 141.6392206481225 -14.942156081657252 L 141.52406170748128 -6.839504988897177 L 141.04386705691837 -0.8127582117938752 L 140.23134562856671 5.1461604334960835 L 139.09294057996098 11.015434576337606 L 137.08218015257566 18.665043346199198 L 135.21708456564937 24.24366905356684 L 133.0585347608312 29.664614165188965 L 130.61932523939169 34.9092955168885 L 126.95498487477334 41.59782747631464 L 123.91775614841987 46.364888919869294 L 119.51468976472766 52.36035890849926 L 115.97053994042379 56.569287119089275 L 110.95851116880455 61.775470853748665 L 107.01026214728199 65.36292324554867 L 101.53257760454392 69.70773905085544 L 97.2915694023509 72.62928061334985 L 91.50061932997089 76.06671693688244 L 84.11508137347634 79.6197657872594 L 76.65991621936749 82.34632587270215 L 69.234027977558 84.2580923855452 L 61.933445939095336 85.3788996767454 L 54.84982407878048 85.7442338268263 L 50.739788591823775 85.61970412468403 L 46.75625857185053 85.25155701119806 L 42.91556784841907 84.65285207029257 L 39.232938465217956 83.83780482890545 L 35.72239725793951 82.82169697849613 L 32.39669955247833 81.62078054434278 L 29.26726042240232 80.25217656317764 L 25.417065771890964 78.19753040270871 L 22.781988022730506 76.50831472742497 L 19.61776928226772 74.09492977421819 L 16.86270180275744 71.54019059784261 L 14.52308955828902 68.8913722906198 L 12.600238327116518 66.1959358451131 L 11.090470015324247 63.50101459722235 L 9.985189169142618 60.85290502939736 L 9.151548564542441 57.67692418019369 L 8.892371435445714 54.727885973269835 L 9.160761346566883 52.083623026628494 L 9.900056493675844 49.81480759596845 L 11.044841051712694 47.98376089394892 L 12.522099618802972 46.64340117800462 L 13.535260585654608 46.092896109637465 L 14.62160628365703 45.74191474932147 L 16.15175546489764 45.594194502875716 L 17.33596085211523 45.72887866409447 L 18.92692577036597 46.24007643803848 L 20.103910527521204 46.872770192286275 L 21.614574182423997 48.046129223275535 L 22.67859928161398 49.16932215732873 L 24.54761066696139 52.01825336959428 L 25.950759237869054 55.619830424103384 L 26.752980341997034 59.893339541755026 L 26.833124674028927 64.73713546002475 L 26.272612872058215 69.12303353021821 L 25.088058160611535 73.74369092128725 L 23.66418745096007 77.55269771858902 L 21.264295351720225 82.37982175273605 L 18.8364895417301 86.2365936765808 L 15.95236641055802 90.03663111574977 L 12.612772810944795 93.73112395757188 L 8.823602905769667 97.27134791047206 L 4.595772180342869 100.60917948984509 L -0.05486075354349471 103.69760601837946 L -3.808040038294671 105.82286731251351 L -7.777071137626231 107.76385415828665 L -11.950098069398727 109.50293831167235 L -17.808443417862378 111.47883962051466 L -22.40388196621813 112.68340017846172 L -27.154424017800068 113.6342187313633 L -32.042889356424844 114.31818580331728 L -37.05109573438384 114.72347037470088 L -42.15995732203168 114.83959386345431 L -47.34958853940926 114.65749644598671 L -52.59941267260774 114.16959532939981 L -57.88827464971553 113.36983463324482 L -63.194557327051065 112.25372658757021 L -68.49630061580368 110.81838380424473 L -72.01732573151504 109.68344456430067 L -78.99734308596136 106.98657604373555 L -85.85069670636193 103.72436834076632 L -92.52509746896605 99.90612027468967 L -98.96924036336281 95.54623490818577 L -105.13331180622129 90.66410153543681 L -110.9694826623957 85.2839270218685 L -116.43238191840598 79.43451819534424 L -121.47954615146378 73.14901749201502 L -126.07184018508214 66.46459454096075 L -130.17384461791633 59.422096824837354 L -133.7542062522288 52.06566297482958 L -136.78594782928405 44.44230264239674 L -139.24673389666964 36.60144723421785 L -140.70693410182312 30.608923005186366 L -142.12952210381667 22.51197668409415 L -142.94528120301047 14.342022856609324 L -143.15663861562317 8.199214740107546 L -142.90546316139367 0.031838775764047124 L -142.050749337402 -8.05985587053636 L -140.603426549922 -16.02286859487926 L -138.57946867350427 -23.80558018855062 L -135.99972818070253 -31.358247596541965 L -132.8897213028112 -38.63347932383346 L -129.27936643507758 -45.58668663654864 L -125.20267847995888 -52.17650595453822 L -120.69742227443248 -58.3651881285767 L -115.80472866725654 -64.11895063654178 L -110.56867719544604 -69.40828911461364 L -105.03584965166608 -74.20824505842288 L -99.2548591327039 -78.49862698021862 L -93.27585941018359 -82.26418278738629 L -85.60169981905301 -86.21805384330897 L -77.79915256955138 -89.32771424408341 L -69.96888643425152 -91.59709106381456 L -62.20968605171248 -93.0424953681478 L -57.62813546521368 -93.52553250064442 L -53.126394301827766 -93.73004330562173 L -45.852216969220486 -93.47853243410657 L -41.65409646873517 -92.9907313009187 L -37.601216063601484 -92.26596184502418 L -33.709030584404445 -91.3184458109451 L -29.991803696195312 -90.16348237640719 L -26.46253089402007 -88.81735273463637 L -23.132870024619187 -87.29721913461015 L -20.013079733130386 -85.6210189691238 L -16.194830319761156 -83.17554889888808 L -12.781883775205705 -80.53132552639809 L -9.786084052540607 -77.7351587878047 L -7.214308644007194 -74.8345983226175 L -5.068426948768125 -71.87742074505579 L -3.345311017190693 -68.91111561075611 L -2.036898524442496 -65.9823754014183 L -0.9644883402486182 -62.443268682404224 L -0.4842513642804001 -59.118268359960965 L -0.5501712611553805 -56.08622202736361 L -1.1063893541994572 -53.41889515394351 L -2.0882077235838525 -51.17977261053213 L -2.8517552869266143 -50.06477778831391 L -3.7257898269322207 -49.13357700866417 L -5.380173052465017 -48.01260806947849 L -6.461561334980526 -47.60944250285597 L -7.586488678486627 -47.41429774642226 L -9.12086982873386 -47.48280217022489 L -10.27233611128678 -47.782347049925875 L -11.402753570695271 -48.2941280356217 L -12.492748196808407 -49.0160183624308 L -14.475176516153105 -51.07387097861557 L -16.07110719311603 -53.90825233663098 L -17.141116885464662 -57.44815814423278 L -17.539095170160707 -60.87074967926894 L -17.418365407422012 -64.65515170090443 L -16.722591051811545 -68.72887932375076 L -15.405249364609778 -73.01226123856011 L -13.879378987496493 -76.5325909525912 L -11.919395757060753 -80.08650575677366 L -9.51697995965302 -83.62672970967517 L -6.668759603404601 -87.10513932668547 L -3.376379423577161 -90.47327358035773 L 0.35348231469853314 -93.68284856552064 L 4.509149430562851 -96.68627150798966 L 9.074035531916751 -99.43714880091173 L 12.753576444214838 -101.30760784083137 L 16.640671187629664 -102.99274797177904 L 20.72321129677551 -104.47529318320571 L 24.987755141442392 -105.73887163625484 L 29.419598845584368 -106.76811590954418 L 34.0028546661479 -107.5487576034825 L 38.720536382013066 -108.06771575085968 L 43.55465120258646 -108.31317851724847 L 48.48629766776151 -108.27467771355197 L 56.868601823261265 -107.5555420943949 L 61.962145491950174 -106.71953733880972 L 67.07786093865963 -105.57367465344701 L 72.19404378524999 -104.11450751680741 L 75.59424810822969 -102.96669836035026 L 80.66230113266491 -100.98208376289497 L 84.00992694155028 -99.48412287194671 L 90.601124326713 -96.0716618176512 L 97.01030962346742 -92.11202078294795 L 103.18643992857119 -87.6195008957423 L 109.07993969182562 -82.61338644255264 L 114.64319435895163 -77.11777908294589 L 119.8310249691693 -71.1613830090886 L 124.60113883729842 -64.77724322304876 L 128.9145516950693 -58.00243958690784 L 132.73597695894068 -50.877739755821615 L 136.03417812899835 -43.44721452714472 L 138.78228070178085 -35.757819525563 L 140.95804039554895 -27.85894749047312 L 142.544064935047 -19.801955734439105 L 143.52798711978943 -11.63967359685786 L 143.9025874002043 -3.4258949230032316 L 143.6658647046787 4.7851392475747065 L 142.82105479210298 12.9392624983799 L 141.3765959435932 20.98290402808459 L 139.34604234805312 28.86360349474621 L 136.7479260735389 36.530514453124816 L 133.6055690445636 43.93489124327897 L 129.94684695893068 51.03055435927979 L 125.80390757132992 57.774329548234356 L 121.21284623947716 64.1264561604072 L 116.21334206735418 70.05096058768828 L 110.84825838450996 75.5159909870676 L 108.0427841944358 78.06744969145385 L 103.69752673858738 81.65978517852724 L 97.68012509294213 85.99780257049932 L 91.45305438577675 89.8045190020712 L 85.06760615693845 93.06830331094449 L 81.83171828739242 94.49436206674613 L 76.94227038870645 96.37511969699602 L 68.7523871502296 98.8224583267554 L 60.59846662986141 100.42146929004826 L 52.578266092402565 101.19554059898948 L 47.86944625728346 101.27816614108833 L 43.26179112568954 101.08579671204583 L 38.773712308989936 100.62935351553975 L 34.422674328134455 99.92106806297403 L 30.225099226114935 98.97440469183323 L 26.19627739418422 97.80397609244862 L 22.35028512463459 96.42545233729092 L 18.69990936392268 94.85546394449815 L 15.256580098006074 93.11149954179518 L 12.030310757410616 91.21179872814291 L 9.029646982994796 89.17524075822149 L 5.391641794528551 86.28054004533723 L 2.179436956978184 83.2241462160896 L -0.5995462881236429 80.05390458344489 L -2.9429052740222184 76.81792745709663 L -4.853248707366251 73.56407962772684 L -6.338137198083618 70.33946752811141 L -7.40997217295732 67.18993735570163 L -8.195359803290156 63.425584926066726 L -8.405478531338424 59.92842544212094 L -8.093539672464345 56.772844816517605 L -7.321890959404172 54.02524707116983 L -6.160904215812565 51.74295611994819 L -4.362823907602521 49.68425187646288 L -3.339771646563389 48.95149202514812 L -2.2588518046774335 48.42419014386174 L -1.1391514288958418 48.10624356661611 L -7.967479667298885e-13 48"
    fill="none"
    stroke="currentColor"
    stroke-width="0.5"
    stroke-linecap="round"
    stroke-linejoin="round"
  >
    <animate
      attributeName="stroke-dashoffset"
      values="10826.15086891049;0;10826.15086891049"
      keyTimes="0;0.5;1"
      keySplines="0.645 0.045 0.355 1;0.645 0.045 0.355 1"
      dur="1.8s"
      repeatCount="indefinite"
      calcMode="spline"
    />
  </path>
</svg>