<?xml version="1.0" encoding="UTF-8"?>
<svg xmlns="http://www.w3.org/2000/svg" viewBox="-160.9754315128289 -158.06084506449596 321.94633999846167 320.060845064496" width="800" height="800">
  <style>
    path {
      stroke-dasharray: 3891.677431824598;
    }
  </style>

  <path
    d="M 8.694992273946208e-15 142 L 1.742357271784588 141.76095547208146 L 3.4669035893732008 141.0447830745156 L 5.155932517399448 139.85436207028073 L 6.791946115170967 138.19447693256132 L 8.357757829253416 136.07179596764877 L 9.836593767924528 133.494841527795 L 11.212191830704697 130.47395195399724 L 12.468898176876202 127.02123542753523 L 14.384137715290358 119.76332571240368 L 15.785737642886474 111.24598697553338 L 16.60310287244581 101.57910125109521 L 16.77691918543929 90.88695039939526 L 16.35301695335725 80.63251848601959 L 15.359512593421154 69.77930465204916 L 13.781342806288155 58.43608033411595 L 11.612647394982798 46.71587453211 L 8.856966690637707 34.7347031390978 L 5.974231195747679 24.129618739322986 L 2.160425699201043 11.976710415743892 L -1.6080514433661222 1.4024490547345323 L -5.75203721293066 -9.035162710927764 L -10.90767948349165 -20.699809450904553 L -16.45890576547748 -31.97883917354345 L -22.344131584985252 -42.76905737610034 L -28.494982778758395 -52.9738017346419 L -34.837123457569426 -62.503962621254 L -41.291171192575554 -71.27890823964725 L -47.77368807290393 -79.2273037520583 L -54.99284113556981 -87.1053032987479 L -62.01273832537475 -93.78859401229681 L -68.70656871131123 -99.22363640837769 L -74.94864438178868 -103.37515333362715 L -78.1759935677334 -105.12001143402213 L -81.20567154136725 -106.46280968797447 L -84.01794228292367 -107.40489217723567 L -86.59378970951258 -107.94933068626656 L -88.91502043693575 -108.10089515268186 L -90.96436315991883 -107.86601629965725 L -92.72556414613655 -107.25274065924623 L -94.18347835719004 -106.27067823170538 L -95.32415572988454 -104.93094306083748 L -96.13492217366814 -103.2460870388588 L -96.60445486480776 -101.23002728622208 L -96.7228514446894 -98.89796748202437 L -96.48169275839942 -96.2663135489558 L -95.87409880033863 -93.35258412306374 L -94.89477756589002 -90.1753162627943 L -93.54006654195345 -86.75396687370713 L -90.15030129514622 -80.04562556776699 L -85.5410100948801 -72.73627728181025 L -79.73237117224262 -64.95502033554844 L -72.76255432990148 -56.83423258468002 L -65.63713765221584 -49.43865979448456 L -57.6888387802166 -41.973497619230194 L -48.978607788681366 -34.53012874415247 L -39.577100548927184 -27.197009239839158 L -29.563982755613846 -20.05858707457435 L -20.36968235860958 -14.034757678256915 L -9.452370145576506 -7.470786100560317 L 0.38289075791007565 -2.0584484887070857 L 10.407815049004714 3.0021767023098245 L 22.002888510085317 8.309371526874882 L 33.63725588546108 13.065213370033431 L 45.196376574978395 17.23338697615839 L 56.56497186610173 20.786971568238766 L 67.62832149502914 23.708654439347054 L 78.27356209599735 25.990815298406968 L 88.39097199507128 27.635480959337983 L 99.011204696242 28.738402521459086 L 108.68888942489968 29.079521240465656 L 117.29370638600207 28.702968459397912 L 124.70830220974013 27.66579088275392 L 128.27479798396402 26.828991902475558 L 131.42649373453955 25.8225372718153 L 134.1495335740857 24.66053366680397 L 136.4317471135244 23.357902202155184 L 138.2627066687191 21.930288110252825 L 139.63377674768705 20.393966818085374 L 140.5381555797934 18.76574691340558 L 140.97090848563278 17.062870506625632 L 140.92899292458105 15.302911507661653 L 140.41127509607318 13.50367234704367 L 139.4185380103417 11.683079678075147 L 137.9534809844477 9.85907960160857 L 136.02071055975807 8.049532957085622 L 133.62672287737274 6.272111222862349 L 130.77987758819697 4.544193565502748 L 127.49036341418383 2.882765571692217 L 120.49304661863569 0.11202101101855505 L 112.1851505893015 -2.2991411173501954 L 102.66752693821041 -4.267544439725589 L 92.05665590590456 -5.719501360814908 L 81.81218074821271 -6.52555528932575 L 70.90661533831405 -6.837717024461331 L 59.44623630719495 -6.628083935174178 L 47.54263282527562 -5.877384042900526 L 35.31146800741909 -4.575322851548906 L 24.4335736134996 -2.9826431581190334 L 11.908700497103146 -0.6511443580376132 L 0.9584285659947264 1.8240222513735205 L -9.89970743626619 4.688007427981064 L -22.09537102484947 8.408896760356344 L -33.95375260602017 12.568105222943965 L -45.365084897648615 17.116785385431374 L -56.225288878907634 21.99857472488036 L -66.43708516717189 27.150296515168396 L -75.9110209827663 32.502758620103016 L -84.5664008052494 37.981640178636994 L -93.23712293404442 44.198638862672965 L -100.69651001586027 50.35981955512829 L -106.87643404940825 56.34571368167475 L -111.72704242508806 62.03580120734804 L -113.83521179090499 65.0250520411391 L -115.52036703078144 67.86592154420296 L -116.78151912681203 70.53866957208571 L -117.61948054719981 73.02406569572508 L -118.03684804556738 75.30349470948504 L -118.03797729556462 77.35905970825915 L -117.62894950855156 79.17368220788755 L -116.8175302201444 80.73119879649822 L -115.61312046846581 82.01645382030306 L -114.02670062287407 83.01538762575586 L -112.07076715657067 83.7151199007462 L -109.75926268965068 84.10402768054178 L -107.10749966069417 84.1718176094047 L -104.13207801475596 83.90959207606699 L -100.8507973234471 83.30990887042793 L -97.28256377859033 82.36683403978623 L -90.20077312406886 79.79098750770133 L -82.3775348223194 76.07688088271482 L -73.94354876190991 71.22928131630923 L -65.03490250323392 65.27042315221853 L -56.83021166167115 59.0724462115227 L -48.45914614640251 52.06682953707657 L -40.019746859788384 44.303260419669044 L -31.608296702517652 35.84140434640393 L -23.318163882640242 26.750342072245708 L -15.238694056702078 17.107885870783058 L -7.454164839189424 6.999782622860018 L -0.9463171099543503 -2.1540001743232366 L 5.227612807289439 -11.527359202989487 L 11.818901569346187 -22.420033409213698 L 17.859850225885705 -33.40256726981596 L 23.301906695110144 -44.36528686548743 L 28.105816802712663 -55.19683343596194 L 32.241974330430686 -65.78542820054665 L 35.69064255793209 -76.02015242551701 L 38.44204525518629 -85.79222733473037 L 40.70448394844144 -96.10176972213334 L 42.09983249322669 -105.54963064816374 L 42.6580839604515 -114.00246148967511 L 42.622251943573836 -118.22317246403452 L 42.35087245429835 -122.07980428631132 L 41.85453678775349 -125.5545829722223 L 41.144967660473114 -128.6311896062463 L 40.23494438662852 -131.29483868484354 L 39.13822287284373 -133.53234976273055 L 37.8694508551497 -135.3322120538964 L 36.44407882481576 -136.68464167189256 L 34.87826711073331 -137.58163122831752 L 33.188789604624596 -138.01699154417932 L 31.392934631512183 -137.98638526578225 L 29.508403481536845 -137.48735221477313 L 27.553207130286378 -136.51932634081265 L 25.545561683241626 -135.08364418482654 L 23.503783085717764 -133.18354480074188 L 21.446181642756866 -130.82416112384604 L 19.39095689378137 -128.0125028142101 L 17.760583786887107 -125.44343149740882 L 14.186605612643415 -118.65433244166084 L 10.824121002916094 -110.53144156259158 L 7.766985155065073 -101.1670575534609 L 5.101302717551286 -90.66996533374797 L 3.122725915544161 -80.48807085347838 L 1.5610646987860506 -69.6046724671609 L 0.4557198619949041 -58.122890021844356 L -0.16191332309827827 -46.15199030315069 L -0.2689222569822241 -33.80619000099301 L 0.1487632786536879 -21.203402564677397 L 1.0961336967802988 -8.463943736275677 L 2.3565131591065267 2.6997626440980005 L 4.0107711145740135 13.793936801672594 L 6.365588133807721 26.284783590693927 L 9.187518990788108 38.46232202971623 L 12.439061368553265 50.212853266447 L 16.074707274327483 61.42774548003357 L 20.04153452174258 72.0046035880133 L 24.27990342161711 81.84836335901275 L 28.724249817070763 90.87229718143253 L 33.88226405717364 99.94818203498201 L 39.10485979467213 107.79361388583264 L 44.28069695477469 114.33079075052362 L 47.09400891366763 117.3745614702612 L 49.837950913733145 119.98811072587259 L 52.49282521099434 122.16555281980473 L 55.0390753417593 123.90284411728132 L 57.45739400544779 125.19779025031079 L 59.728830266598024 126.05004487400035 L 61.83489552876539 126.46110000395086 L 63.75766773804312 126.43426800341399 L 65.47989328163689 125.97465532842034 L 67.2586896263164 124.8616386844254 L 68.48290338311328 123.47649233203468 L 69.45698263722129 121.6865118351772 L 70.16752101000458 119.50387309274976 L 70.60225359283584 116.9422839293271 L 70.75013345796152 114.01691146004913 L 70.60140247479401 110.74430308251476 L 70.14765605427124 107.14230149033313 L 69.5602999014561 104.03629892490585 L 67.49447954259936 96.37537071076707 L 64.38233435162928 87.88588741007514 L 60.21864683593542 78.70102244765006 L 55.0150061043606 68.96065786099906 L 49.53919819878412 59.95289478956043 L 43.29525051987166 50.72333600460868 L 36.32470096297479 41.37522963774019 L 28.67905477106446 32.01079883758231 L 20.41931491733652 22.730037278784117 L 11.615388829247188 13.629544312587917 L 2.345378034698911 4.801413880860778 L -6.081184830468381 -2.6315872999239214 L -15.989619754004757 -10.720871782622408 L -26.10178487723519 -18.307223010449448 L -36.316420309084435 -25.32509685803573 L -47.800010715236226 -32.47033205136626 L -57.882368350399354 -38.10319542991442 L -68.94457960535566 -43.58461972867537 L -78.40973752107698 -47.667947247602164 L -88.50788716939776 -51.354678700303516 L -97.88406850657715 -54.07594475152982 L -102.73003900946077 -55.17377386148781 L -107.28806897485576 -55.98046199799824 L -111.53672429100588 -56.50137161599611 L -115.45567201772205 -56.743282290975586 L -119.02577874956795 -56.714339953388816 L -122.82441343337659 -56.33548402347664 L -125.56622085588387 -55.74569441748098 L -127.9070718921933 -54.91959147678883 L -129.83382289237034 -53.87036083285961 L -131.58320369481405 -52.33679783954303 L -132.56073851626053 -50.84791185856192 L -133.14583479713977 -48.83220475431093 L -133.0802308169318 -46.594195470507835 L -132.52389541907073 -44.581242738060574 L -131.50973830643653 -42.45307336240103 L -130.36892873530968 -40.67997991291683 L -127.21366462652298 -36.9864010531027 L -124.65650855902501 -34.60594872157041 L -122.2918713802 -32.677170569838744 L -116.73091523768781 -28.795433672965018 L -110.09815315239449 -24.944679113647044 L -102.44812603610984 -21.19868054653397 L -93.84632455344196 -17.627880825731737 L -85.59832295835908 -14.699250852539587 L -76.73624124950457 -11.996486577566992 L -67.32193685783108 -9.557094645349633 L -57.421865922062636 -7.414658109480921 L -47.10653626268751 -5.598477457830836 L -36.449923864335325 -4.133257917584939 L -25.52885810248757 -3.038846148003655 L -14.422381241906228 -2.330018936771764 L -3.2110879741342755 -2.016325998435377 L 6.4202691121014 -2.065286052636225 L 17.609902721339083 -2.492539581178222 L 28.67157358443619 -3.312739243845714 L 39.52506223634036 -4.514829057621671 L 50.09189203496254 -6.0825652592010355 L 60.29598452095097 -7.994689147401505 L 70.06429314731876 -10.225153482164462 L 79.32740967476707 -12.743400191534034 L 88.02013778341752 -15.514686627359564 L 97.17894232318596 -18.94209731295291 L 105.43217163233425 -22.586598119972912 L 112.70782426903284 -26.380336382725226 L 118.94444384218687 -30.25150069404656 L 124.09174261542087 -34.125335460745625 L 128.1110945849751 -37.92520179800611 L 129.68899937334058 -39.77320082903661 L 131.2519628234737 -42.01523302660044 L 132.35770673164436 -44.16423997573475 L 133.0802308169317 -46.59419547050803 L 133.14583479713974 -48.83220475431089 L 132.56073851626041 -50.847911858562234 L 131.33494972098725 -52.6121905882973 L 129.83382289237036 -53.870360832859724 L 127.47163200599172 -55.10309918904849 L 125.04948751715516 -55.882960765304915 L 121.61866404081181 -56.50248319120671 L 118.34054037203126 -56.741361181407036 L 113.92891035671155 -56.67950652229438 L 109.87571426516675 -56.32689848211787 L 105.50080521590495 -55.692412710665685 L 100.82496868940751 -54.76983077213298 L 95.87005067925024 -53.55436972575226 L 90.65885303894707 -52.042723088366124 L 80.70883318063717 -48.570617776252966 L 70.1490864688424 -44.1361057396585 L 59.12869143992782 -38.757701177268046 L 49.0692055222747 -33.21236454699381 L 37.59527263766583 -26.159431765221004 L 27.37512848845161 -19.21679727385626 L 15.989619754004636 -10.720871782622334 L 6.081184830468274 -2.63158729992383 L -2.345378034699024 4.801413880860885 L -11.615388829247188 13.629544312587953 L -20.41931491733638 22.730037278783954 L -28.679054771064433 32.01079883758237 L -36.32470096297453 41.37522963773998 L -43.29525051987161 50.72333600460877 L -49.53919819878387 59.95289478956023 L -55.643802871339375 70.06589051184248 L -60.73299284228694 79.75160069963027 L -64.78010494901538 88.86600464587022 L -67.7754298476659 97.26985945112152 L -68.98694856502613 101.5825984383404 L -69.87913813405719 105.61349905788654 L -70.45692956409607 109.34198895515937 L -70.72673600057237 112.74856529320006 L -70.69640391462036 115.8148923155315 L -70.37515743748867 118.52389398689493 L -69.77353614413875 120.85984125425995 L -68.90332662203666 122.80843349521996 L -67.77748819104102 124.356873747809 L -66.41007316836722 125.49393734463305 L -64.81614209868202 126.2100336049764 L -63.011674393360344 126.49726027098369 L -61.01347484470096 126.34945040802987 L -58.83907650031018 125.76221152479457 L -56.50664039988167 124.73295670517463 L -54.034852691099836 123.2609275818377 L -51.442819653329394 121.34720901975243 L -49.295658951840515 119.50012755687034 L -46.536264521596834 116.80000442855831 L -44.280696954774925 114.33079075052385 L -39.10485979467204 107.79361388583256 L -33.88226405717365 99.94818203498225 L -29.290807845058595 91.93867941332186 L -24.82558563271761 83.02287069235695 L -20.55777175824274 73.277027514495 L -16.553610764300064 62.78676955759525 L -13.313908705245336 53.07090757334467 L -9.961773508051044 41.44432602620843 L -7.370905891134184 30.89427990113886 L -4.837055833456076 18.50732871551667 L -3.0179404777769316 7.467637128595434 L -1.5873930462751533 -3.676182655279991 L -0.5562845833220971 -14.843179498895575 L 0.06987318296618934 -25.951963676117238 L 0.28972204024087256 -38.472380022609656 L 0.05462979984804105 -49.18439673653291 L -0.687417778913517 -61.04355263162424 L -1.732050807568986 -71.00000000000023 L -3.3481394090491867 -81.80121111215306 L -5.375683744482528 -91.8885175217533 L -7.766985155064943 -101.16705755346048 L -10.467712433302346 -109.55041050386373 L -13.800776965890563 -117.81611613430684 L -17.35609338447834 -124.75743064382081 L -18.98178473496892 -127.3966457193152 L -21.034367299808217 -130.29775435317924 L -22.681618468564555 -132.29455470659684 L -24.731919585673268 -134.37908933226817 L -26.353742540413702 -135.71387105718725 L -28.342603034799307 -136.96277294753054 L -30.27171010405584 -137.74325544187903 L -32.4822297863631 -138.06084506449596 L -34.54971841761887 -137.70579927759871 L -36.14162310713529 -136.90069926122848 L -37.86945085514969 -135.33221205389646 L -39.13822287284369 -133.53234976273058 L -40.432338482371726 -130.79580179007297 L -41.30334134020834 -128.04845442703146 L -42.07934003914716 -124.21157182127166 L -42.48703821902533 -120.58201030245114 L -42.66540392623961 -116.5775352364773 L -42.60431814780296 -112.21647927049088 L -42.29488858751597 -107.51850991716225 L -41.729510481839235 -102.50453674247828 L -40.047734634404165 -92.75411753163118 L -37.49218599398946 -82.18869335861518 L -34.478795159871666 -72.23056623203522 L -30.258831206909452 -60.528467409693114 L -25.78570978715131 -49.804448072233406 L -19.973119543283385 -37.52186652662624 L -14.151556070728022 -26.533792790530217 L -7.760383336375448 -15.594727622195705 L -0.8537311901450625 -4.8126625165286185 L 5.563431346057101 4.410731471824597 L 13.261744537365127 14.621003097243566 L 21.275160316571878 24.388200738043654 L 29.520822906092764 33.624730794016195 L 37.91055836756489 42.25071839807639 L 46.3519024798383 50.19483125147004 L 54.74919424487662 57.394992439166096 L 64.02178636426444 64.54128823166458 L 72.97461108436083 70.62148723653436 L 81.46813532981005 75.59397828974126 L 89.36580581554144 79.43458223503049 L 93.44729252453479 81.07598765550226 L 97.28256377859043 82.36683403978623 L 100.85079732344704 83.30990887042772 L 104.13207801475599 83.90959207606691 L 107.10749966069403 84.17181760940471 L 109.75926268965067 84.10402768054168 L 112.07076715657075 83.7151199007461 L 114.02670062287436 83.01538762575552 L 115.6131204684661 82.01645382030273 L 116.81753022014433 80.73119879649828 L 117.6289495085518 79.17368220788713 L 118.0379772955647 77.35905970825903 L 118.03684804556744 75.3034947094851 L 117.61948054719996 73.02406569572491 L 116.78151912681211 70.53866957208542 L 115.52036703078147 67.86592154420303 L 113.83521179090512 65.0250520411389 L 111.72704242508803 62.03580120734768 L 106.87643404940852 56.34571368167498 L 100.69651001586044 50.35981955512807 L 93.23712293404412 44.198638862672404 L 84.56640080524944 37.98164017863685 L 75.91102098276639 32.50275862010288 L 66.43708516717217 27.15029651516834 L 56.22528887890773 21.99857472488036 L 45.36508489764862 17.116785385431296 L 33.95375260601954 12.56810522294362 L 23.598413187673764 8.90575324975672 L 11.438741240777752 5.127674761865349 L 0.6002259039151242 2.2098129896286594 L -10.341754200154814 -0.32204427192021906 L -22.87119660621804 -2.7208073991215955 L -33.765418820770506 -4.373641989627542 L -46.02924300881876 -5.74489048327379 L -56.507429529651034 -6.491691689798994 L -68.08925685298479 -6.835130417181371 L -79.14371729244309 -6.651131595558385 L -89.56309291279334 -5.965479255097636 L -99.24586971367978 -4.812250237785151 L -109.14157828438638 -3.0083195564920406 L -117.86472553142967 -0.7359392168281714 L -125.3090826578464 1.9247082803015096 L -128.18313029177824 3.2089324561884682 L -131.38501221469983 4.884994988930726 L -134.14204311250995 6.624186345148481 L -136.44439692654242 8.409434219220818 L -138.28408421791906 10.223292819313587 L -139.65498494775613 12.048044514299 L -140.5528728820774 13.865803057181129 L -140.9754315128289 15.658617849948815 L -140.85463977392487 17.751861354639974 L -140.2327649697661 19.426967748204483 L -139.14101226906433 21.02047524248568 L -137.58506666267263 22.51530303436012 L -135.57246787513958 23.89484397814127 L -133.11257370937744 25.143063243630134 L -130.2165153079908 26.244594165633266 L -126.89714454761378 27.184830784221095 L -123.16897381944321 27.950016591243244 L -119.04810848480625 28.527329017253148 L -110.69813532728003 29.05604964554742 L -101.24803112930833 28.878699241038404 L -90.82539408778598 27.948182034982167 L -79.56931136689857 26.231115768656824 L -68.98412746091348 24.028949119028557 L -57.96692141241757 21.186988569860237 L -46.63023368890621 17.711643394035466 L -35.088623320116774 13.619016697343016 L -23.457370306327608 8.934837291407044 L -11.851177971621375 3.6942621786832115 L -1.8050976264752236 -1.3130805554520748 L 8.061661248542396 -6.677549258413117 L 19.02711973585768 -13.194283416591931 L 29.56398275561355 -20.058587074574188 L 39.577100548927376 -27.197009239839435 L 48.97860778868127 -34.530128744152385 L 57.68883878021639 -41.97349761923006 L 65.63713765221563 -49.4386597944845 L 72.7625543299012 -56.834232584679974 L 79.73237117224244 -64.95502033554837 L 85.54101009487995 -72.73627728181016 L 90.15030129514628 -80.04562556776725 L 93.54006654195317 -86.753966873707 L 94.89477756588988 -90.17531626279434 L 95.8740988003386 -93.35258412306385 L 96.48169275839922 -96.26631354895608 L 96.72285144468921 -98.89796748202477 L 96.60445486480778 -101.23002728622197 L 96.134922173668 -103.24608703885889 L 95.32415572988441 -104.9309430608376 L 94.18347835718988 -106.27067823170549 L 92.7255641461364 -107.25274065924637 L 90.96436315991886 -107.86601629965728 L 88.9150204369358 -108.10089515268186 L 86.59378970951212 -107.94933068626673 L 84.01794228292344 -107.40489217723572 L 81.20567154136711 -106.4628096879747 L 78.17599356773319 -105.12001143402225 L 74.94864438178874 -103.37515333362725 L 68.706568711311 -99.22363640837759 L 62.012738325374556 -93.78859401229663 L 54.99284113556997 -87.10530329874825 L 47.77368807290375 -79.22730375205828 L 41.29117119257537 -71.27890823964727 L 34.83712345756925 -62.503962621254054 L 28.494982778758644 -52.973801734642315 L 22.344131584985487 -42.769057376100804 L 16.458905765477706 -31.97883917354398 L 10.907679483491888 -20.699809450905168 L 5.752037212930822 -9.035162710928162 L 1.608051443366037 1.4024490547347774 L -2.1604256992009274 11.976710415743561 L -5.974231195747725 24.129618739323355 L -8.856966690637625 34.73470313909765 L -11.61264739498267 46.715874532109794 L -13.78134280628797 58.43608033411573 L -15.359512593421055 69.77930465204844 L -16.353016953357137 80.63251848602013 L -16.776919185439084 90.88695039939574 L -16.60310287244569 101.57910125109508 L -15.785737642886403 111.24598697553326 L -14.384137715290368 119.76332571240354 L -12.468898176875879 127.02123542753536 L -11.212191830704366 130.4739519539975 L -9.8365937679246 133.4948415277948 L -8.357757829253023 136.07179596764894 L -6.791946115170793 138.19447693256132 L -5.155932517399272 139.8543620702808 L -3.4669035893730036 141.04478307451558 L -1.742357271784624 141.76095547208143 L -4.029087969194793e-14 142"
    fill="none"
    stroke="currentColor"
    stroke-width="10"
    stroke-linecap="round"
    stroke-linejoin="round"
  >
    <animate
      attributeName="stroke-dashoffset"
      values="3891.677431824598;0;3891.677431824598"
      keyTimes="0;0.5;1"
      keySplines="0 0 1 1;0 0 1 1"
      dur="2s"
      repeatCount="indefinite"
      calcMode="spline"
    />
  </path>
</svg>