<?xml version="1.0" encoding="UTF-8"?>
<svg xmlns="http://www.w3.org/2000/svg" viewBox="-41 -41 82 82" width="800" height="800">
  <style>
    path {
      stroke-dasharray: 2251.0684833854575;
    }
  </style>

  <path
    d="M -3.857637417314163e-15 -21 L 1.3505744170676923 -20.836806368069897 L 2.586496723779346 -20.38787694731448 L 3.755549949403297 -19.66054136711 L 4.8270620031012434 -18.667578728860136 L 5.772369754422217 -17.426409481537828 L 6.565412200925196 -15.958764965438613 L 7.183272330069632 -14.290275399370811 L 7.586203028371648 -12.56944467369057 L 7.831787535325925 -8.781417853403026 L 7.317070078604783 -4.86139459321375 L 6.059648682983222 -0.9080708757309524 L 4.108082468127104 2.8623741701622007 L 1.5597199223334235 6.248981397016144 L -1.4451026354625318 9.078231853446802 L -4.731674808075103 11.214474620915828 L -8.216973443698818 12.599990798809804 L -10.032429606774128 12.979567679235059 L -11.772165953064027 13.108598792076302 L -13.401910258373922 12.992598975309653 L -14.888992914677576 12.64180662621937 L -16.20298709199212 12.070948367643688 L -17.378655066787577 11.244483678368134 L -18.252332706959134 10.283606882607534 L -18.910325874615047 9.098027647724834 L -19.258773030929696 7.857667297674344 L -19.333440663312352 6.528251420118177 L -19.128355544951827 5.1423008774923185 L -18.642553318127348 3.7331182708585753 L -17.88011965520229 2.334111159897648 L -16.922107700257904 1.0609984923818403 L -15.740254799997153 -0.1482164188155346 L -14.349484386553051 -1.26886836594249 L -11.138788206727085 -3.1014995827477105 L -7.380531016780366 -4.380698316660909 L -3.414984760981107 -4.997844289609322 L 0.6853636476064712 -4.959818960958611 L 4.719440110348613 -4.263367147795678 L 8.617932520185684 -2.8919478386667157 L 12.033327159643635 -0.9508865079353126 L 14.794404796533492 1.425293760221976 L 15.920778335899744 2.7708712577766046 L 16.874829680947354 4.256215675491385 L 17.52724443947106 5.667078171637681 L 17.95856108280117 7.159643145215105 L 18.114918856428492 8.60630846761309 L 17.999383946215158 9.973695011621587 L 17.619950059487284 11.229568098164668 L 16.94197561968394 12.407742724281718 L 16.001321534921125 13.392200798101591 L 14.8992781274841 14.115184418279632 L 13.612990573157461 14.619224398331388 L 12.171004064634467 14.88727996381531 L 10.604400668110149 14.906684112695705 L 9.051859599350458 14.691856737111728 L 7.33885411357372 14.21100252119776 L 5.70983608989799 13.525501381432857 L 2.500907065758033 11.497637120860691 L -0.36791503992200275 8.777090090089123 L -2.8271273593677613 5.436109433266169 L -4.675282478304162 1.777390316765322 L -5.909366443540059 -2.127887507429926 L -6.482504548261041 -6.226066057174744 L -6.328213725671631 -10.159990619115762 L -5.4465731876846375 -13.828981021673854 L -4.759017744592687 -15.443466594475453 L -3.8686964246574056 -16.967864821807236 L -2.907798838117996 -18.189688797817873 L -1.7737273673368938 -19.251605059264186 L -0.5557240705504608 -20.047693168345027 L 0.7150780128736289 -20.56553131002498 L 2.006328506389802 -20.79760769162144 L 3.363883739630228 -20.728408129815044 L 4.668090324217159 -20.337213816193053 L 5.812590683954162 -19.683513645256 L 6.845655924229534 -18.766252404801094 L 7.739143357542763 -17.603127698047498 L 8.467655639673254 -16.216083150175926 L 8.981081942126048 -14.735229341241554 L 9.330325915107592 -12.990627031659349 L 9.459098633891768 -11.227950339529931 L 9.134050664300764 -7.577754592943579 L 8.03877433650402 -3.787473094305983 L 6.202791448546813 -0.07313084998295707 L 3.8020298280001783 3.247240241650889 L 0.8980998741435713 6.137864978267921 L -2.483301652653653 8.532295012202447 L -6.055579530021312 10.207017329488398 L -9.729645306808079 11.11559323329474 L -11.485599676212024 11.250034266071292 L -13.255766822491486 11.16339132593072 L -14.789739941111778 10.874906550140214 L -16.262278201675343 10.359407843660247 L -17.537757223490793 9.647181652700597 L -18.590751780624245 8.760105019471812 L -19.39963002809127 7.723399876327492 L -19.972186842198223 6.489356881873905 L -20.234330922175182 5.1544546761399745 L -20.18929466771013 3.840295892419009 L -19.85881473866999 2.503701149396717 L -19.245566585395085 1.177790298439874 L -18.357260644976613 -0.10479318867639638 L -17.285817419818983 -1.2398290514474906 L -15.904649558024637 -2.350402805139504 L -14.405030175460846 -3.2737618069161583 L -10.898601006743307 -4.698270139604988 L -7.024190415537396 -5.443123577469041 L -2.8811684539602314 -5.49352693770489 L 1.167226819279534 -4.861849601988381 L 5.061148929545529 -3.5867452360523977 L 8.729725880464516 -1.6609429024728788 L 11.843694610124857 0.7616719707258945 L 14.321232626215997 3.6228037195196974 L 15.238207065224094 5.1263355671799955 L 15.964646707645914 6.742901115112203 L 16.404014112997025 8.240650519260882 L 16.613219783111568 9.786723231909939 L 16.55767695878999 11.246527286174228 L 16.245335416344123 12.58747667054179 L 15.688847409938903 13.77884675232761 L 14.84924240491751 14.849242404917486 L 13.778846752327613 15.688847409938907 L 12.58747667054179 16.245335416344123 L 11.246527286174265 16.557676958789983 L 9.786723231909942 16.613219783111568 L 8.240650519260885 16.404014112997032 L 6.642103437864829 15.926998414983045 L 5.025410064216479 15.184091215620336 L 3.5236839596962586 14.25219516933528 L 0.6714900375326408 11.74731018761513 L -1.7364247881135786 8.611474953883672 L -3.6427156013181934 4.926921749372958 L -4.928857156901143 0.8808487848713726 L -5.521585655172418 -3.315808587504959 L -5.397437431709843 -7.44112117780204 L -4.584031708734559 -11.275630395053465 L -3.099261293857297 -14.719816579595737 L -2.0839413161301814 -16.271939329583514 L -0.9450007230659928 -17.593357472395887 L 0.2894267838709067 -18.6637364652286 L 1.5890006631582407 -19.467215046855728 L 2.921792602112186 -19.99269149433926 L 4.33751418571189 -20.239615505543007 L 5.634740067815365 -20.177956391312257 L 6.938342615258815 -19.804896705516647 L 8.061799177009679 -19.17421883799629 L 9.054636148239627 -18.286977845152187 L 9.889634097406383 -17.161945740159087 L 10.542562625584116 -15.821989114175134 L 10.992688027413584 -14.293619685827267 L 11.215497878029556 -12.715976335613348 L 11.234845741509753 -11.025236071854467 L 11.043843142253191 -9.249392290271135 L 10.069404061985628 -5.6832212883693245 L 8.316445016766458 -2.1212020446796163 L 5.94876847063569 1.1192507063587411 L 3.022496337950198 3.991746903552708 L -0.3224922845369657 6.351803926325534 L -4.048882597272305 8.138714452390367 L -7.836468936920374 9.181225532720115 L -11.469058838283413 9.453389072211786 L -13.216992179251347 9.298388466913847 L -14.94190546509835 8.92270753243346 L -16.400862803343472 8.386403993984914 L -17.761252540858912 7.6359881031441486 L -18.89476104245704 6.723602885592242 L -19.779953821753082 5.6750190693449385 L -20.399689923240125 4.518682419223415 L -20.753384866933324 3.2061868278180463 L -20.784358964638592 1.8449269659395524 L -20.516323218592632 0.5544379788641947 L -19.963190654256152 -0.7115147612397282 L -19.133096123788512 -1.9206971078843313 L -18.03906104393277 -3.042173798253062 L -16.789342832082205 -3.988080221983734 L -15.23804976004481 -4.859342740351311 L -13.601437564389764 -5.526509927128635 L -9.898465521097625 -6.361648830467912 L -5.946184702157903 -6.466495141416638 L -1.8448289164477083 -5.842990770621629 L 2.0491191985714314 -4.5627286901715935 L 5.683196770849219 -2.6739093986375844 L 8.986316454291652 -0.18132939600438455 L 11.65892110178864 2.709475425348248 L 13.629875092566287 5.927257422085016 L 14.28531367297009 7.555046234992871 L 14.733673753983973 9.262510801529205 L 14.918176573369598 10.805928019850397 L 14.867155135551037 12.358725836710853 L 14.568816045238828 13.782903527729136 L 14.03639013604261 15.047663160003227 L 13.287440939046917 16.12481792335912 L 12.278572948378873 17.035822955210282 L 11.079743476425573 17.681420123316123 L 9.808223687252754 18.02846826502419 L 8.429134607200682 18.110354058585777 L 6.974890216688872 17.91969171407545 L 5.478965636208822 17.454039083339772 L 4.068796645861524 16.769964533200284 L 2.5882237406984703 15.78329719120479 L 1.2507670359701368 14.627952611844686 L -1.100467505590665 11.817030823266451 L -3.0061239372250372 8.36241975431572 L -4.3343245756165025 4.437747215490224 L -4.984586668665638 0.3922954786392424 L -4.975178459330374 -3.705073436950932 L -4.277284223889352 -7.7892031005356275 L -2.9355098196773244 -11.499392519062397 L -0.9800131771901439 -14.739809527157856 L 0.16656989892350332 -16.07652093516357 L 1.4795329024066377 -17.266952317616038 L 2.7682052379715465 -18.14764557071982 L 4.173959658617566 -18.82437472927608 L 5.57947949357065 -19.222654625496723 L 6.951316988260418 -19.339976314610105 L 8.256341519007028 -19.17887837174001 L 9.533800494530492 -18.711137007955717 L 10.663082753025462 -17.95258246265999 L 11.560487899618938 -16.991486434203544 L 12.271918507237942 -15.812686628843887 L 12.775847133467535 -14.441494147152708 L 13.05464346040716 -12.906443511736631 L 13.099610245697164 -11.34622718611597 L 12.90827131690888 -9.584299792840842 L 12.500793693925145 -7.870995346605244 L 11.028653352875724 -4.384296001753844 L 8.815722267636856 -1.1179830827073791 L 5.921803901818148 1.84721639874604 L 2.6124928235798306 4.263200821770408 L -1.042560849875511 6.114984607477884 L -4.998384378473826 7.347312357478371 L -8.913340188661776 7.836173357581853 L -12.688349781927569 7.564931627967151 L -14.39990619113541 7.150172906753971 L -16.05666104959007 6.520758842857747 L -17.426409481537785 5.772369754422226 L -18.667578728860146 4.8270620031012195 L -19.660541367109996 3.7555499494032842 L -20.38787694731447 2.586496723779346 L -20.83680636806989 1.3505744170677074 L -21 2.786380958378523e-14 L -20.836806368069908 -1.3505744170676814 L -20.387876947314478 -2.5864967237793834 L -19.660541367110003 -3.75554994940332 L -18.667578728860157 -4.827062003101254 L -17.426409481537867 -5.7723697544222174 L -15.958764965438673 -6.565412200925193 L -14.290275399370898 -7.183272330069628 L -12.5694446736906 -7.586203028371648 L -8.781417853403031 -7.831787535325924 L -4.861394593213761 -7.317070078604792 L -0.9080708757309648 -6.059648682983231 L 2.8623741701622034 -4.1080824681271 L 6.248981397016145 -1.5597199223334182 L 9.0782318534468 1.4451026354625398 L 11.214474620915814 4.7316748080751125 L 12.599990798809793 8.216973443698853 L 12.979567679235043 10.03242960677414 L 13.108598792076284 11.772165953064018 L 12.99259897530964 13.401910258373901 L 12.641806626219363 14.888992914677543 L 12.070948367643664 16.20298709199214 L 11.244483678368118 17.37865506678759 L 10.283606882607529 18.252332706959134 L 9.098027647724821 18.910325874615054 L 7.857667297674349 19.2587730309297 L 6.528251420118194 19.333440663312366 L 5.142300877492357 19.12835554495185 L 3.7331182708585615 18.64255331812736 L 2.334111159897643 17.880119655202307 L 1.0609984923818119 16.922107700257882 L -0.1482164188155426 15.740254799997164 L -1.2688683659424704 14.349484386553083 L -3.101499582747698 11.138788206727128 L -4.380698316660906 7.380531016780405 L -4.997844289609322 3.4149847609811568 L -4.959818960958615 -0.6853636476064133 L -4.263367147795698 -4.719440110348506 L -2.8919478386667494 -8.617932520185608 L -0.9508865079353455 -12.033327159643573 L 1.4252937602219395 -14.794404796533435 L 2.7708712577766073 -15.920778335899742 L 4.256215675491377 -16.87482968094735 L 5.667078171637643 -17.527244439471026 L 7.159643145215124 -17.95856108280116 L 8.606308467613081 -18.11491885642848 L 9.97369501162158 -17.99938394621515 L 11.229568098164648 -17.619950059487287 L 12.407742724281732 -16.94197561968393 L 13.392200798101584 -16.001321534921143 L 14.115184418279652 -14.899278127484076 L 14.619224398331395 -13.612990573157472 L 14.887279963815322 -12.171004064634477 L 14.906684112695723 -10.604400668110184 L 14.691856737111726 -9.051859599350456 L 14.211002521197758 -7.338854113573718 L 13.525501381432841 -5.709836089897943 L 11.497637120860713 -2.5009070657580534 L 8.777090090089157 0.3679150399219823 L 5.436109433266211 2.827127359367741 L 1.7773903167653886 4.675282478304135 L -2.1278875074298633 5.909366443540044 L -6.226066057174678 6.482504548261027 L -10.159990619115716 6.328213725671643 L -13.828981021673819 5.446573187684629 L -15.443466594475474 4.759017744592671 L -16.96786482180725 3.868696424657387 L -18.18968879781791 2.9077988381179427 L -19.251605059264207 1.7737273673368499 L -20.047693168345035 0.5557240705504315 L -20.56553131002498 -0.7150780128736434 L -20.797607691621437 -2.0063285063898006 L -20.728408129815044 -3.363883739630213 L -20.337213816193028 -4.668090324217241 L -19.683513645255992 -5.81259068395419 L -18.766252404801083 -6.845655924229561 L -17.6031276980475 -7.739143357542776 L -16.216083150175926 -8.467655639673268 L -14.735229341241597 -8.981081942126035 L -12.990627031659416 -9.330325915107581 L -11.22795033952996 -9.459098633891779 L -7.577754592943587 -9.134050664300782 L -3.7874730943059802 -8.03877433650402 L -0.07313084998295974 -6.202791448546818 L 3.2472402416509825 -3.8020298280000993 L 6.137864978267866 -0.8980998741436272 L 8.53229501220242 2.483301652653605 L 10.207017329488385 6.055579530021309 L 11.11559323329472 9.729645306807958 L 11.250034266071271 11.485599676211999 L 11.163391325930707 13.255766822491397 L 10.874906550140214 14.789739941111781 L 10.359407843660247 16.262278201675347 L 9.647181652700617 17.537757223490765 L 8.760105019471805 18.590751780624245 L 7.723399876327485 19.399630028091273 L 6.489356881873945 19.97218684219821 L 5.1544546761399666 20.234330922175186 L 3.8402958924190016 20.18929466771013 L 2.5037011493967434 19.858814738670006 L 1.1777902984398674 19.24556658539509 L -0.10479318867640348 18.357260644976616 L -1.2398290514475359 17.285817419818965 L -2.3504028051395456 15.904649558024612 L -3.2737618069161094 14.405030175460928 L -4.6982701396049835 10.898601006743299 L -5.443123577469044 7.0241904155374 L -5.493526937704887 2.8811684539601763 L -4.861849601988411 -1.1672268192794124 L -3.586745236052397 -5.061148929545538 L -1.6609429024728788 -8.729725880464509 L 0.7616719707258972 -11.84369461012485 L 3.62280371951966 -14.321232626215963 L 5.126335567180004 -15.238207065224076 L 6.742901115112171 -15.964646707645878 L 8.240650519260807 -16.404014112997 L 9.786723231909868 -16.613219783111557 L 11.24652728617416 -16.557676958789994 L 12.587476670541825 -16.24533541634411 L 13.778846752327645 -15.688847409938882 L 14.84924240491748 -14.849242404917518 L 15.688847409938878 -13.778846752327663 L 16.24533541634411 -12.58747667054185 L 16.55767695878999 -11.24652728617426 L 16.613219783111568 -9.7867232319099 L 16.404014112997046 -8.240650519260921 L 15.92699841498305 -6.642103437864826 L 15.184091215620295 -5.025410064216394 L 14.252195169335298 -3.5236839596962524 L 11.747310187615096 -0.6714900375326035 L 8.611474953883743 1.7364247881135484 L 4.926921749372851 3.6427156013182387 L 0.8808487848713771 4.928857156901142 L -3.3158085875050602 5.521585655172417 L -7.441121177802048 5.3974374317098475 L -11.275630395053335 4.58403170873457 L -14.719816579595735 3.0992612938572908 L -16.271939329583564 2.0839413161301006 L -17.593357472395883 0.9450007230659857 L -18.663736465228602 -0.2894267838709671 L -19.46721504685569 -1.5890006631581812 L -19.992691494339248 -2.9217926021122183 L -20.239615505543007 -4.337514185711818 L -20.17795639131225 -5.634740067815386 L -19.804896705516626 -6.938342615258881 L -19.174218837996307 -8.061799177009659 L -18.28697784515216 -9.054636148239686 L -17.161945740159148 -9.88963409740635 L -15.821989114175134 -10.542562625584152 L -14.293619685827347 -10.992688027413573 L -12.715976335613435 -11.215497878029542 L -11.025236071854469 -11.234845741509773 L -9.249392290271086 -11.043843142253188 L -5.683221288369371 -10.069404061985638 L -2.1212020446795807 -8.316445016766462 L 1.1192507063586852 -5.948768470635743 L 3.9917469035527433 -3.022496337950156 L 6.351803926325621 0.3224922845371167 L 8.138714452390396 4.048882597272366 L 9.181225532720125 7.836468936920525 L 9.45338907221178 11.46905883828346 L 9.298388466913872 13.216992179251212 L 8.922707532433451 14.941905465098303 L 8.38640399398492 16.400862803343472 L 7.635988103144169 17.761252540858845 L 6.723602885592248 18.894761042457045 L 5.67501906934489 19.779953821753104 L 4.518682419223452 20.39968992324011 L 3.2061868278180063 20.75338486693333 L 1.8449269659395493 20.784358964638606 L 0.5544379788641869 20.516323218592635 L -0.7115147612396998 19.9631906542562 L -1.920697107884338 19.133096123788512 L -3.0421737982531085 18.039061043932744 L -3.9880802219837643 16.78934283208217 L -4.859342740351274 15.238049760044838 L -5.526509927128666 13.60143756438973 L -6.361648830467901 9.898465521097672 L -6.466495141416645 5.946184702157861 L -5.842990770621646 1.84482891644777 L -4.562728690171667 -2.049119198571261 L -2.673909398637611 -5.683196770849178 L -0.18132939600434814 -8.986316454291664 L 2.709475425348207 -11.658921101788604 L 5.927257422084888 -13.62987509256619 L 7.555046234992832 -14.285313672970057 L 9.262510801529162 -14.733673753983972 L 10.805928019850448 -14.918176573369566 L 12.358725836710818 -14.867155135551034 L 13.782903527729186 -14.568816045238783 L 15.047663160003319 -14.036390136042556 L 16.124817923359117 -13.287440939046906 L 17.03582295521021 -12.278572948378967 L 17.681420123316116 -11.079743476425596 L 18.02846826502422 -9.808223687252694 L 18.110354058585777 -8.429134607200568 L 17.919691714075473 -6.974890216688813 L 17.454039083339758 -5.478965636208779 L 16.769964533200287 -4.06879664586157 L 15.783297191204882 -2.588223740698577 L 14.627952611844794 -1.250767035970239 L 11.817030823266528 1.1004675055906445 L 8.362419754315884 3.0061239372249724 L 4.437747215490287 4.334324575616489 L 0.3922954786391588 4.984586668665647 L -3.7050734369508396 4.975178459330373 L -7.789203100535457 4.277284223889392 L -11.499392519062344 2.935509819677344 L -14.739809527157735 0.9800131771902265 L -16.07652093516353 -0.16656989892347668 L -17.266952317616038 -1.4795329024066954 L -18.14764557071984 -2.768205237971588 L -18.82437472927608 -4.173959658617515 L -19.222654625496723 -5.579479493570692 L -19.33997631461012 -6.951316988260368 L -19.17887837174001 -8.256341519007004 L -18.711137007955745 -9.533800494530439 L -17.952582462660015 -10.663082753025419 L -16.991486434203512 -11.560487899618963 L -15.812686628843926 -12.271918507237906 L -14.44149414715267 -12.775847133467552 L -12.906443511736756 -13.054643460407126 L -11.346227186116009 -13.099610245697201 L -9.584299792840795 -12.908271316908879 L -7.870995346605382 -12.500793693925166 L -4.384296001753796 -11.028653352875704 L -1.117983082707237 -8.815722267636724 L 1.8472163987460666 -5.921803901818134 L 4.263200821770374 -2.6124928235798857 L 6.114984607477857 1.0425608498754515 L 7.347312357478423 4.998384378474013 L 7.836173357581828 8.913340188661811 L 7.564931627967153 12.688349781927519 L 7.150172906753924 14.399906191135438 L 6.520758842857724 16.056661049590105 L 5.77236975442227 17.42640948153776 L 4.827062003101236 18.667578728860114 L 3.7555499494033886 19.660541367109936 L 2.5864967237793697 20.387876947314453 L 1.3505744170676965 20.8368063680699 L 5.1869981750256294e-14 21 L -1.3505744170675946 20.83680636806993 L -2.5864967237792733 20.387876947314517 L -3.7555499494032993 19.660541367110024 L -4.82706200310126 18.66757872886012 L -5.772369754422289 17.426409481537764 L -6.565412200925192 15.958764965438624 L -7.183272330069674 14.290275399370765 L -7.586203028371647 12.569444673690649 L -7.83178753532595 8.781417853402997 L -7.317070078604808 4.861394593213821 L -6.059648682983195 0.9080708757308902 L -4.108082468127151 -2.8623741701621244 L -1.5597199223333809 -6.248981397016186 L 1.4451026354625034 -9.078231853446784 L 4.731674808074971 -11.21447462091573 L 8.216973443698809 -12.599990798809802 L 10.032429606774189 -12.979567679235043 L 11.772165953063976 -13.108598792076304 L 13.401910258373944 -12.992598975309628 L 14.888992914677504 -12.641806626219397 L 16.20298709199211 -12.070948367643673 L 17.37865506678753 -11.24448367836815 L 18.25233270695912 -10.283606882607547 L 18.91032587461507 -9.098027647724784 L 19.258773030929685 -7.857667297674398 L 19.333440663312366 -6.528251420118152 L 19.128355544951845 -5.142300877492406 L 18.64255331812738 -3.7331182708585904 L 17.880119655202268 -2.334111159897622 L 16.922107700258 -1.0609984923818891 L 15.740254799997203 0.14821641881551684 L 14.349484386553044 1.2688683659425015 L 11.138788206727208 3.101499582747692 L 7.3805310167803535 4.380698316660923 L 3.4149847609809827 4.9978442896093345 L -0.6853636476064686 4.959818960958612 L -4.719440110348703 4.263367147795654 L -8.617932520185628 2.891947838666721 L -12.0333271596437 0.9508865079352531 L -14.794404796533488 -1.425293760221967 L -15.920778335899627 -2.770871257776513 L -16.87482968094732 -4.256215675491343 L -17.527244439471062 -5.66707817163767 L -17.958561082801133 -7.159643145215019 L -18.114918856428496 -8.606308467613033 L -17.99938394621514 -9.97369501162162 L -17.619950059487316 -11.229568098164604 L -16.941975619683948 -12.407742724281713 L -16.001321534921164 -13.39220079810157 L -14.899278127484116 -14.115184418279618 L -13.612990573157571 -14.619224398331374 L -12.171004064634523 -14.887279963815299 L -10.604400668110141 -14.906684112695725 L -9.05185959935041 -14.691856737111722 L -7.338854113573756 -14.211002521197807 L -5.709836089897985 -13.52550138143287 L -2.500907065758095 -11.49763712086078 L 0.3679150399220205 -8.77709009008912 L 2.827127359367716 -5.43610943326624 L 4.675282478304076 -1.7773903167655343 L 5.909366443540012 2.1278875074297767 L 6.482504548261029 6.226066057174732 L 6.328213725671644 10.159990619115659 L 5.446573187684672 13.828981021673677 L 4.759017744592725 15.443466594475346 L 3.8686964246573807 16.967864821807197 L 2.907798838117962 18.18968879781788 L 1.7737273673368397 19.25160505926424 L 0.5557240705504546 20.047693168345017 L -0.7150780128736562 20.565531310024994 L -2.0063285063897762 20.79760769162143 L -3.3638837396301544 20.728408129815055 L -4.668090324217132 20.337213816193064 L -5.812590683954171 19.68351364525601 L -6.845655924229564 18.76625240480105 L -7.739143357542765 17.60312769804753 L -8.467655639673263 16.216083150175884 L -8.98108194212606 14.735229341241647 L -9.330325915107572 12.990627031659555 L -9.45909863389176 11.227950339530098 L -9.134050664300798 7.577754592943641 L -8.038774336504087 3.787473094306144 L -6.202791448546874 0.07313084998303346 L -3.8020298280001597 -3.2472402416509114 L -0.8980998741436752 -6.1378649782678245 L 2.4833016526536538 -8.532295012202443 L 6.055579530021268 -10.207017329488389 L 9.729645306808104 -11.115593233294732 L 11.485599676211956 -11.25003426607129 L 13.255766822491443 -11.163391325930696 L 14.78973994111166 -10.874906550140237 L 16.262278201675173 -10.359407843660287 L 17.537757223490676 -9.647181652700667 L 18.59075178062418 -8.76010501947184 L 19.399630028091188 -7.723399876327615 L 19.972186842198205 -6.489356881873968 L 20.234330922175197 -5.154454676139966 L 20.189294667710126 -3.840295892418961 L 19.858814738670034 -2.503701149396745 L 19.24556658539511 -1.177790298439894 L 18.357260644976712 0.10479318867633776 L 17.285817419819065 1.239829051447456 L 15.904649558024788 2.350402805139399 L 14.405030175460823 3.2737618069162027 L 10.898601006743561 4.698270139604913 L 7.024190415537601 5.443123577469044 L 2.8811684539604783 5.493526937704912 L -1.1672268192795836 4.861849601988369 L -5.061148929545478 3.586745236052419 L -8.729725880464525 1.6609429024728468 L -11.843694610124807 -0.7616719707258617 L -14.321232626216014 -3.6228037195197906 L -15.238207065224048 -5.126335567179967 L -15.964646707645914 -6.742901115112206 L -16.40401411299696 -8.240650519260784 L -16.613219783111553 -9.78672323190991 L -16.557676958789965 -11.246527286174146 L -16.245335416344133 -12.587476670541736 L -15.688847409938939 -13.778846752327528 L -14.849242404917554 -14.849242404917442 L -13.77884675232763 -15.688847409938901 L -12.587476670541733 -16.24533541634417 L -11.246527286174292 -16.557676958789994 L -9.786723231909917 -16.613219783111603 L -8.240650519260797 -16.404014112997025 L -6.6421034378648525 -15.926998414983098 L -5.025410064216431 -15.184091215620324 L -3.523683959696296 -14.252195169335305 L -0.6714900375326364 -11.747310187615142 L 1.73642478811352 -8.611474953883766 L 3.642715601318213 -4.92692174937294 L 4.928857156901129 -0.880848784871441 L 5.521585655172421 3.315808587505023 L 5.397437431709837 7.4411211778019615 L 4.584031708734535 11.275630395053508 L 3.099261293857385 14.719816579595495 L 2.0839413161302525 16.271939329583397 L 0.9450007230661074 17.593357472395706 L -0.2894267838707921 18.663736465228496 L -1.5890006631581794 19.467215046855653 L -2.921792602112032 19.99269149433921 L -4.337514185711818 20.23961550554299 L -5.6347400678153345 20.177956391312264 L -6.938342615258831 19.804896705516644 L -8.061799177009668 19.174218837996317 L -9.054636148239643 18.286977845152183 L -9.889634097406368 17.161945740159176 L -10.542562625584116 15.82198911417517 L -10.992688027413633 14.293619685827226 L -11.215497878029575 12.715976335613481 L -11.234845741509742 11.025236071854321 L -11.043843142253177 9.249392290271128 L -10.06940406198569 5.683221288369433 L -8.31644501676647 2.121202044679618 L -5.948768470635765 -1.119250706358654 L -3.022496337949999 -3.9917469035528748 L 0.32249228453704387 -6.351803926325563 L 4.048882597272293 -8.138714452390346 L 7.836468936920484 -9.181225532720134 L 11.4690588382834 -9.453389072211747 L 13.216992179251156 -9.298388466913847 L 14.941905465098268 -8.922707532433483 L 16.40086280334328 -8.386403993984967 L 17.761252540858948 -7.635988103144126 L 18.89476104245712 -6.723602885592138 L 19.779953821753082 -5.675019069344938 L 20.399689923240153 -4.518682419223325 L 20.753384866933303 -3.206186827818185 L 20.784358964638603 -1.8449269659396015 L 20.516323218592653 -0.5544379788641842 L 19.963190654256138 0.7115147612397744 L 19.133096123788555 1.920697107884342 L 18.039061043932765 3.0421737982530646 L 16.78934283208234 3.98808022198363 L 15.23804976004507 4.859342740351205 L 13.60143756438976 5.526509927128636 L 9.89846552109775 6.361648830467919 L 5.9461847021581296 6.466495141416652 L 1.844828916447857 5.842990770621677 L -2.049119198571397 4.5627286901716095 L -5.6831967708490945 2.673909398637652 L -8.986316454291643 0.18132939600438278 L -11.658921101788534 -2.7094754253481645 L -13.629875092566275 -5.927257422085021 L -14.285313672970062 -7.555046234992786 L -14.733673753983929 -9.262510801529128 L -14.918176573369577 -10.80592801985024 L -14.867155135551007 -12.358725836710795 L -14.568816045238854 -13.782903527729006 L -14.036390136042606 -15.04766316000319 L -13.287440939046945 -16.124817923359082 L -12.278572948378859 -17.03582295521029 L -11.079743476425477 -17.681420123316176 L -9.808223687252742 -18.0284682650242 L -8.429134607200579 -18.110354058585802 L -6.974890216688862 -17.919691714075462 L -5.4789656362087955 -17.454039083339804 L -4.06879664586159 -16.769964533200337 L -2.5882237406984747 -15.783297191204776 L -1.2507670359701182 -14.627952611844723 L 1.1004675055907316 -11.81703082326637 L 3.0061239372250363 -8.362419754315702 L 4.334324575616533 -4.437747215490146 L 4.984586668665637 -0.3922954786392523 L 4.975178459330381 3.705073436950803 L 4.277284223889356 7.789203100535646 L 2.93550981967735 11.499392519062264 L 0.9800131771901492 14.739809527157872 L -0.16656989892346602 16.07652093516347 L -1.4795329024066493 17.266952317616028 L -2.7682052379713986 18.147645570719746 L -4.173959658617507 18.824374729276045 L -5.579479493570501 19.222654625496705 L -6.9513169882603645 19.339976314610098 L -8.256341519006828 19.17887837174006 L -9.533800494530393 18.71113700795577 L -10.663082753025428 17.952582462660025 L -11.560487899618924 16.991486434203544 L -12.271918507237924 15.812686628843945 L -12.77584713346752 14.441494147152708 L -13.054643460407172 12.906443511736628 L -13.099610245697182 11.346227186116051 L -12.908271316908957 9.584299792841021 L -12.500793693925159 7.870995346605241 L -11.02865335287587 4.384296001754036 L -8.81572226763694 1.117983082707468 L -5.92180390181834 -1.8472163987458827 L -2.6124928235797107 -4.263200821770482 L 1.0425608498753707 -6.1149846074778145 L 4.998384378473934 -7.347312357478385 L 8.913340188661772 -7.836173357581843 L 12.688349781927647 -7.564931627967097 L 14.399906191135406 -7.150172906753956 L 16.056661049590055 -6.520758842857709 L 17.42640948153771 -5.772369754422257 L 18.667578728860093 -4.827062003101282 L 19.660541367109907 -3.7555499494033815 L 20.387876947314446 -2.58649672377942 L 20.83680636806986 -1.3505744170678178 L 21 -4.745444448632335e-14 L 20.836806368069904 1.350574417067669 L 20.387876947314478 2.5864967237793994 L 19.660541367109957 3.7555499494033633 L 18.667578728860157 4.82706200310127 L 17.42640948153779 5.77236975442225 L 15.958764965438515 6.5654122009252776 L 14.290275399370797 7.183272330069642 L 12.569444673690908 7.586203028371637 L 8.781417853403253 7.831787535325944 L 4.861394593213675 7.317070078604796 L 0.908070875730971 6.059648682983239 L -2.8623741701620933 4.108082468127171 L -6.248981397015934 1.5597199223335914 L -9.078231853446862 -1.4451026354626286 L -11.214474620915828 -4.731674808075119 L -12.599990798809703 -8.216973443698574 L -12.979567679235004 -10.03242960677378 L -13.108598792076268 -11.772165953063936 L -12.992598975309676 -13.401910258373745 L -12.641806626219417 -14.888992914677333 L -12.07094836764371 -16.202987091992075 L -11.244483678368102 -17.378655066787598 L -10.28360688260754 -18.252332706959116 L -9.098027647724834 -18.910325874615047 L -7.8576672976744 -19.258773030929696 L -6.528251420118339 -19.333440663312366 L -5.142300877492272 -19.12835554495184 L -3.7331182708586406 -18.642553318127383 L -2.3341111598977715 -17.88011965520241 L -1.0609984923819353 -16.92210770025801 L 0.1482164188154742 -15.74025479999722 L 1.2688683659424935 -14.349484386553115 L 3.1014995827476617 -11.138788206727236 L 4.380698316660849 -7.380531016780613 L 4.997844289609308 -3.414984760981257 L 4.959818960958614 0.6853636476064321 L 4.26336714779567 4.719440110348669 L 2.8919478386667476 8.6179325201856 L 0.9508865079353934 12.033327159643447 L -1.4252937602220666 14.794404796533613 L -2.7708712577764945 15.92077833589957 L -4.256215675491448 16.874829680947407 L -5.66707817163747 17.527244439471005 L -7.159643145215117 17.958561082801175 L -8.606308467613022 18.11491885642847 L -9.973695011621746 17.999383946215094 L -11.229568098164766 17.619950059487216 L -12.407742724281613 16.94197561968402 L -13.39220079810153 16.0013215349212 L -14.115184418279696 14.899278127484008 L -14.619224398331435 13.612990573157452 L -14.887279963815276 12.171004064634566 L -14.906684112695721 10.604400668110351 L -14.691856737111749 9.051859599350628 L -14.211002521197866 7.338854113573977 L -13.52550138143278 5.709836089897853 L -11.49763712086085 2.500907065758138 L -8.777090090089313 -0.3679150399218358 L -5.436109433266528 -2.8271273593675526 L -1.7773903167651737 -4.675282478304221 L 2.1278875074297394 -5.909366443540011 L 6.226066057174418 -6.482504548260989 L 10.159990619115836 -6.328213725671637 L 13.82898102167398 -5.44657318768453 L 15.443466594475286 -4.759017744592716 L 16.96786482180729 -3.8686964246572777 L 18.189688797817713 -2.907798838118065 L 19.251605059264037 -1.7737273673371243 L 20.047693168345006 -0.5557240705505052 L 20.565531310024937 0.7150780128735297 L 20.797607691621412 2.00632850638965 L 20.72840812981506 3.363883739630103 L 20.33721381619308 4.668090324217081 L 19.68351364525595 5.812590683954233 L 18.76625240480108 6.845655924229575 L 17.603127698047565 7.73914335754278 L 16.21608315017607 8.467655639673163 L 14.735229341241697 8.981081942126082 L 12.990627031659594 9.330325915107545 L 11.227950339529784 9.459098633891848 L 7.577754592943471 9.134050664300746 L 3.7874730943060024 8.038774336504051 L 0.07313084998310629 6.202791448546929 L -3.2472402416508386 3.802029828000222 L -6.137864978267912 0.8980998741435562 L -8.532295012202434 -2.4833016526536156 L -10.207017329488336 -6.055579530021207 L -11.115593233294748 -9.729645306808061 L -11.250034266071317 -11.485599676212102 L -11.163391325930723 -13.255766822491402 L -10.874906550140228 -14.789739941111783 L -10.359407843660263 -16.262278201675276 L -9.647181652700652 -17.537757223490654 L -8.760105019471926 -18.59075178062407 L -7.723399876327552 -19.399630028091234 L -6.489356881873842 -19.972186842198244 L -5.1544546761398875 -20.234330922175197 L -3.8402958924189616 -20.189294667710147 L -2.503701149396747 -19.858814738670063 L -1.1777902984398123 -19.24556658539504 L 0.1047931886764168 -18.35726064497662 L 1.2398290514472925 -17.28581741981921 L 2.3504028051395056 -15.904649558024694 L 3.2737618069161654 -14.405030175460848 L 4.698270139604888 -10.898601006743595 L 5.443123577469008 -7.024190415537866 L 5.493526937704909 -2.8811684539603304 L 4.861849601988391 1.1672268192794928 L 3.5867452360523524 5.06114892954561 L 1.6609429024728761 8.729725880464441 L -0.7616719707258253 11.843694610124789 L -3.6228037195197604 14.321232626215952 L -5.126335567180102 15.238207065224081 L -6.742901115112158 15.96464670764592 L -8.240650519260921 16.404014112996958 L -9.786723231909862 16.613219783111568 L -11.2465272861741 16.557676958789987 L -12.587476670541598 16.245335416344158 L -13.778846752327636 15.68884740993886 L -14.849242404917536 14.849242404917462 L -15.688847409938935 13.77884675232756 L -16.24533541634414 12.587476670541776 L -16.55767695879002 11.246527286174306 L -16.613219783111624 9.786723231909786 L -16.404014112997015 8.240650519260845 L -15.926998414983093 6.6421034378648995 L -15.184091215620471 5.025410064216623 L -14.252195169335367 3.523683959696327 L -11.747310187615156 0.6714900375326754 L -8.61147495388385 -1.7364247881134898 L -4.926921749372807 -3.6427156013182778 L -0.8808487848712414 -4.928857156901175 L 3.3158085875049323 -5.521585655172405 L 7.441121177801876 -5.397437431709826 L 11.275630395053682 -4.584031708734499 L 14.7198165795956 -3.0992612938572908 L 16.271939329583375 -2.0839413161302933 L 17.593357472395688 -0.9450007230661527 L 18.66373646522855 0.28942678387091736 L 19.467215046855614 1.5890006631581768 L 19.99269149433921 2.9217926021119816 L 20.23961550554297 4.337514185711818 L 20.177956391312293 5.634740067815157 L 19.804896705516693 6.938342615258719 L 19.17421883799625 8.061799177009783 L 18.286977845152215 9.054636148239599 L 17.161945740159208 9.88963409740633 L 15.821989114175057 10.542562625584193 L 14.293619685827267 10.992688027413662 L 12.715976335613707 11.215497878029597 L 11.025236071854373 11.234845741509782 L 9.24939229027138 11.043843142253253 L 5.683221288369291 10.069404061985665 L 2.1212020446796562 8.31644501676648 L -1.1192507063584418 5.948768470635941 L -3.991746903552777 3.022496337950111 L -6.351803926325387 -0.322492284536765 L -8.138714452390426 -4.048882597272468 L -9.181225532720093 -7.836468936920416 L -9.453389072211714 -11.46905883828334 L -9.298388466913794 -13.216992179251285 L -8.922707532433515 -14.941905465098234 L -8.386403993984882 -16.400862803343387 L -7.6359881031440855 -17.761252540859047 L -6.723602885592183 -18.894761042457098 L -5.67501906934493 -19.779953821753065 L -4.5186824192231985 -20.399689923240192 L -3.206186827818054 -20.75338486693332 L -1.8449269659395242 -20.78435896463859 L -0.5544379788642362 -20.51632321859266 L 0.7115147612396523 -19.963190654256238 L 1.9206971078844624 -19.13309612378849 L 3.0421737982530193 -18.039061043932787 L 3.9880802219834934 -16.789342832082514 L 4.859342740351247 -15.238049760044929 L 5.526509927128605 -13.601437564389792 L 6.361648830467913 -9.898465521098041 L 6.466495141416628 -5.946184702157938 L 5.842990770621681 -1.844828916447894 L 4.562728690171623 2.0491191985713635 L 2.6739093986375515 5.68319677084927 L 0.18132939600442363 8.986316454291567 L -2.709475425348123 11.658921101788469 L -5.927257422084981 13.629875092566222 L -7.555046234992925 14.285313672970073 L -9.262510801529094 14.733673753983885 L -10.805928019850375 14.91817657336955 L -12.358725836710772 14.867155135550979 L -13.782903527728966 14.568816045238883 L -15.04766316000327 14.036390136042575 L -16.12481792335908 13.287440939046935 L -17.03582295521026 12.278572948378901 L -17.681420123316187 11.079743476425481 L -18.028468265024177 9.80822368725279 L -18.1103540585858 8.429134607200773 L -17.919691714075462 6.974890216688726 L -17.454039083339847 5.478965636208812 L -16.7699645332003 4.0687966458614575 L -15.783297191204783 2.58822374069852 L -14.627952611844787 1.2507670359701386 L -11.817030823266572 -1.1004675055905762 L -8.362419754315576 -3.006123937225112 L -4.437747215490237 -4.33432457561652 L -0.3922954786391045 -4.98458666866565 L 3.7050734369507112 -4.97517845933038 L 7.7892031005353894 -4.277284223889434 L 11.499392519062432 -2.9355098196772906 L 14.73980952715801 -0.9800131771900711 L 16.07652093516341 0.16656989892345625 L 17.26695231761591 1.4795329024064663 L 18.147645570719742 2.7682052379713498 L 18.824374729275988 4.173959658617314 L 19.222654625496702 5.579479493570635 L 19.339976314610077 6.951316988260361 L 19.178878371740076 8.256341519006778 L 18.711137007955767 9.533800494530396 L 17.95258246266005 10.663082753025385 L 16.99148643420367 11.560487899618858 L 15.812686628843837 12.271918507238006 L 14.441494147152747 12.775847133467492 L 12.906443511736832 13.054643460407133 L 11.346227186116096 13.099610245697162 L 9.584299792841065 12.908271316908943 L 7.870995346605097 12.500793693925091 L 4.384296001753901 11.028653352875823 L 1.1179830827075043 8.815722267636954 L -1.8472163987458303 5.921803901818414 L -4.2632008217705595 2.6124928235795837 L -6.114984607477805 -1.0425608498753343 L -7.3473123574783 -4.99838437847363 L -7.836173357581865 -8.91334018866195 L -7.5649316279670415 -12.688349781927778 L -7.15017290675394 -14.399906191135345 L -6.520758842857622 -16.05666104959016 L -5.772369754422245 -17.426409481537668 L -4.827062003101428 -18.667578728859958 L -3.755549949403317 -19.66054136710998 L -2.5864967237794136 -20.387876947314425 L -1.350574417067813 -20.836806368069848 L -9.988232608319842e-14 -21"
    fill="none"
    stroke="currentColor"
    stroke-width="0.5"
    stroke-linecap="round"
    stroke-linejoin="round"
  >
    <animate
      attributeName="stroke-dashoffset"
      values="2251.0684833854575;0;2251.0684833854575"
      keyTimes="0;0.5;1"
      keySplines="0 0 1 1;0 0 1 1"
      dur="2.2s"
      repeatCount="indefinite"
      calcMode="spline"
    />
  </path>
</svg>